<!-- Generator: Adobe Illustrator 18.1.1, SVG Export Plug-In  -->
<svg version="1.1"
	 xmlns="http://www.w3.org/2000/svg" xmlns:xlink="http://www.w3.org/1999/xlink" xmlns:a="http://ns.adobe.com/AdobeSVGViewerExtensions/3.0/"
	 x="0px" y="0px" width="57.1px" height="89.8px" viewBox="0 0 57.1 89.8" enable-background="new 0 0 57.1 89.8"
	 xml:space="preserve">
<defs>
</defs>
<g>
	<path fill="#FC0624" d="M13.6,9.6c-0.7-1.5-1.4-2.4-1.9-2.5c-0.5-0.1-1.6,0.2-3.4,1c-1,0.5-1.7,1.1-1.9,1.7
		c-0.2,0.6-0.1,1.9,0.2,3.8c0.5,2.8,1.2,5.3,2.1,7.6c1,2.3,1.8,3.4,2.5,3.4c0.3,0,0.6-0.3,1.1-0.9c0.5-0.6,0.9-1.3,1.3-2.1
		c0.9-2,2.7-3.5,5.3-4.7c2.6-1.2,5.6-1.8,8.8-1.8c2.6,0,4.2,0.2,4.9,0.6c0.7,0.4,1.6,1.6,2.6,3.6c1.3,2.4,2.3,5.5,3,9.5
		c0.7,4,0.9,7,0.5,9.1c-0.3,1.7-1,2.8-2,3.2c-1,0.4-2.1,0.1-3.3-1c-1-1-2.4-1.5-4-1.6c-1.6-0.1-3.3,0.1-5,0.6
		c-1.7,0.5-3.4,1.4-5.1,2.6c-1.7,1.2-3.1,2.6-4.2,4.1c-1.9,2.8-2.9,4.5-2.9,5c0,0.3-0.1,0.6-0.4,1.1c-0.3,0.4-0.6,0.8-1,1.1
		c-0.4,0.4-0.8,1-1.1,1.8c-0.3,0.8-0.5,1.7-0.5,2.6c0,2.1-0.3,3.5-0.9,4.4c-0.6,1-0.8,3.3-0.5,6.8c0.3,3.5,0.9,6.1,1.8,7.7
		c1.5,2.9,3,4.8,4.3,5.9c1.3,1.1,3.2,1.8,5.6,2.1c2.8,0.4,6.3,0.1,10.5-1.1c4.2-1.1,6.9-2.4,8.2-3.9c1.2-1.4,2.2-2,3.1-1.9
		c0.9,0.2,1.9,1.2,3,3c1,1.7,2.2,2.9,3.6,3.6c1.3,0.7,2.4,0.6,3.2-0.2c0.6-0.5,0.5-1.6-0.2-3c-0.7-1.5-1.9-3.1-3.5-4.8
		c-0.8-0.8-1.2-1.9-1.4-3.2c-0.2-1.3-0.1-3.4,0.1-6.2c0.2-2.8,0.8-7.5,1.7-13.9c0.9-6.1,1.3-13,1.4-20.9c0-7.8-0.3-12.5-1.1-13.9
		c-0.8-1.4-3.5-3.1-8-5c-4.6-1.9-8.2-2.9-10.7-2.9c-1.1,0-2.3,0.2-3.8,0.5c-1.4,0.3-2.6,0.7-3.5,1.2c-2.3,1-4.1,1.4-5.4,1.1
		C15.6,12.4,14.5,11.4,13.6,9.6z"/>
	<path fill="#FFFFFF" d="M28.9,56.9c-2.5-0.7-4.2-0.6-5.1,0.1c-1,0.8-1.5,2.5-1.8,5.1c-0.2,1.9,0.2,3.3,1.3,4.3c1,1,2.3,1.3,3.9,0.8
		c1.6-0.5,2.9-1.5,3.8-3.1c0.9-1.5,1.1-3.1,0.8-4.5C31.3,58.1,30.4,57.2,28.9,56.9z"/>
	<path d="M9.2,0.9c0.8-1,2-1.2,3.4-0.6c1.5,0.5,2.8,1.6,4,3.3c1,1.3,1.8,2.1,2.4,2.3c0.7,0.2,2,0.1,4.1-0.2
		c2.9-0.5,6.7-0.4,11.4,0.3C39.2,6.6,43,7.6,45.8,9c1.8,0.9,3.2,1.8,4.2,2.9c1,1,2,2.6,3.1,4.7c1.2,2.5,2,4.6,2.3,6.3
		s0.4,5.1,0.3,10c-0.1,3-0.2,5.7-0.4,8.2c-0.2,2.5-0.4,3.9-0.7,4.4c-0.6,1.1-0.9,3.7-0.9,7.8c0,4.1-0.3,6.4-0.7,7.1
		c-1.3,2.1-1.6,5.2-0.9,9.3c0.7,4,2.1,6.9,4.1,8.5c0.7,0.6,1,1.4,1.1,2.4c0,1-0.2,2-0.7,3c-0.5,1-1.2,2-2,2.9
		c-0.8,0.9-1.8,1.7-2.9,2.3c-1.1,0.6-2.3,0.9-3.3,0.9c-1.6,0-2.8-0.2-3.7-0.8c-0.9-0.5-1.7-1.6-2.5-3.1c-0.6-1.1-1.1-1.8-1.5-1.8
		c-0.4-0.1-1.1,0.2-2.1,0.9c-1.5,1-4.7,2-9.5,3.3c-6,1.5-10.7,1.6-14.1,0.2c-3.4-1.4-6.5-4.6-9.3-9.6c-1.9-3.4-2.8-6.8-2.8-10.1
		c0-3.5,0.3-7,0.8-10.5c0.5-3.5,1.1-5.5,1.6-5.8c0.6-0.4,1.8-2.3,3.6-5.8c1.1-2.2,2.2-3.9,3.3-4.9c1.1-1,3-2.2,5.8-3.6
		c2.6-1.3,4.7-2.1,6.2-2.5c1.5-0.4,3.4-0.5,5.5-0.4l5.1,0.3l-0.5-4.2c-0.3-2.7-0.9-5.1-1.8-7.1s-2-3.1-3.3-3.5
		c-2-0.6-3.9-0.5-5.8,0.3s-3.3,2.2-4.2,4.1c-1.1,2.4-2.5,3.5-4,3.5c-0.6,0-1.3,0.2-2.3,0.5c-0.9,0.3-1.7,0.7-2.3,1.2
		c-1.6,1.1-2.5,1.5-2.7,1.4c-0.8-1-2-3.6-3.6-8.1s-2.5-7.5-2.7-9.2c-0.3-2.8-0.7-5.2-1.2-7C-0.1,6.3-0.1,5.4,0.3,5
		C0.7,4.6,1.8,4,3.8,3.4C6.7,2.6,8.5,1.8,9.2,0.9z M13.6,9.6c-0.7-1.5-1.4-2.4-1.9-2.5c-0.5-0.1-1.6,0.2-3.4,1
		c-1,0.5-1.7,1.1-1.9,1.7c-0.2,0.6-0.1,1.9,0.2,3.8c0.5,2.8,1.2,5.3,2.1,7.6c1,2.3,1.8,3.4,2.5,3.4c0.3,0,0.6-0.3,1.1-0.9
		c0.5-0.6,0.9-1.3,1.3-2.1c0.9-2,2.7-3.5,5.3-4.7c2.6-1.2,5.6-1.8,8.8-1.8c2.6,0,4.2,0.2,4.9,0.6c0.7,0.4,1.6,1.6,2.6,3.6
		c1.3,2.4,2.3,5.5,3,9.5c0.7,4,0.9,7,0.5,9.1c-0.3,1.7-1,2.8-2,3.2c-1,0.4-2.1,0.1-3.3-1c-1-1-2.4-1.5-4-1.6c-1.6-0.1-3.3,0.1-5,0.6
		c-1.7,0.5-3.4,1.4-5.1,2.6c-1.7,1.2-3.1,2.6-4.2,4.1c-1.9,2.8-2.9,4.5-2.9,5c0,0.3-0.1,0.6-0.4,1.1c-0.3,0.4-0.6,0.8-1,1.1
		c-0.4,0.4-0.8,1-1.1,1.8c-0.3,0.8-0.5,1.7-0.5,2.6c0,2.1-0.3,3.5-0.9,4.4c-0.6,1-0.8,3.3-0.5,6.8c0.3,3.5,0.9,6.1,1.8,7.7
		c1.5,2.9,3,4.8,4.3,5.9c1.3,1.1,3.2,1.8,5.6,2.1c2.8,0.4,6.3,0.1,10.5-1.1c4.2-1.1,6.9-2.4,8.2-3.9c1.2-1.4,2.2-2,3.1-1.9
		c0.9,0.2,1.9,1.2,3,3c1,1.7,2.2,2.9,3.6,3.6c1.3,0.7,2.4,0.6,3.2-0.2c0.6-0.5,0.5-1.6-0.2-3c-0.7-1.5-1.9-3.1-3.5-4.8
		c-0.8-0.8-1.2-1.9-1.4-3.2c-0.2-1.3-0.1-3.4,0.1-6.2c0.2-2.8,0.8-7.5,1.7-13.9c0.9-6.1,1.3-13,1.4-20.9c0-7.8-0.3-12.5-1.1-13.9
		c-0.8-1.4-3.5-3.1-8-5c-4.6-1.9-8.2-2.9-10.7-2.9c-1.1,0-2.3,0.2-3.8,0.5c-1.4,0.3-2.6,0.7-3.5,1.2c-2.3,1-4.1,1.4-5.4,1.1
		C15.6,12.4,14.5,11.4,13.6,9.6z M25.1,51.9c3.1-0.4,4.9-0.7,5.4-0.8c0.8-0.2,1.9,0.7,3.1,2.5c1.3,1.9,1.9,3.5,1.9,4.9
		c0,3.9-1.3,7.3-4,10.2S25.7,73,22.1,73c-2.1,0-3.6-0.7-4.4-2c-0.8-1.3-1.2-3.7-1.1-7.1c0-3.7,0.8-6.6,2.1-8.5
		C20.1,53.5,22.2,52.3,25.1,51.9z M28.9,56.9c-2.5-0.7-4.2-0.6-5.1,0.1c-1,0.8-1.5,2.5-1.8,5.1c-0.2,1.9,0.2,3.3,1.3,4.3
		c1,1,2.3,1.3,3.9,0.8c1.6-0.5,2.9-1.5,3.8-3.1c0.9-1.5,1.1-3.1,0.8-4.5C31.3,58.1,30.4,57.2,28.9,56.9z"/>
</g>
</svg>
