<!-- Generator: Adobe Illustrator 18.1.1, SVG Export Plug-In  -->
<svg version="1.1"
	 xmlns="http://www.w3.org/2000/svg" xmlns:xlink="http://www.w3.org/1999/xlink" xmlns:a="http://ns.adobe.com/AdobeSVGViewerExtensions/3.0/"
	 x="0px" y="0px" width="769px" height="171px" viewBox="0 0 769 171" enable-background="new 0 0 769 171" xml:space="preserve">
<defs>
</defs>
<g>
	<g>
		<g>
			<g>
				<g>
					<g>
						<path fill="#202020" d="M754.1,166.4c-0.5,0.1-0.6,0.2-0.2,0.3c0.2,0.1,0.4,0.1,0.8,0.1c0.4,0,0.9,0,1.5-0.2
							c0,0,1.5-1.1,1.5-1.1c0,0-0.2,0.1-0.5,0.2c-0.3,0.1-0.7,0.3-1.2,0.3c-0.4,0.1-0.9,0.2-1.2,0.2
							C754.3,166.4,754.1,166.4,754.1,166.4z"/>
						<path fill="#202020" d="M765.9,156.7c-0.2-3.1-0.9-6.7-1.4-4.7c0.3,1.5,0.4,2.5,0.5,3.5c0.1,1,0.2,1.9,0.1,3.5
							c-0.3,1.2-0.9,2.2-1.4,2.8c-0.5,0.6-0.8,0.8-0.8,0.5c-0.2,0.4-0.8,1.1-1.6,1.8c-0.8,0.7-1.7,1.3-2.2,1.7
							c1.6-0.5,3.2-1.7,4.4-3.3c0.6-0.8,1.1-1.8,1.4-2.8c0.2-0.5,0.3-1.1,0.4-1.6c0-0.5,0.1-1.1,0.1-1.6
							C765.7,155.5,765.8,156.5,765.9,156.7z"/>
						<path fill="#202020" d="M654.3,2.3l1.7,0.1C655.5,2.3,654.9,2.3,654.3,2.3z"/>
						<path fill="#202020" d="M493.1,1.9c1.2,0,1.7-0.1,1.8-0.1C493.8,1.9,492.8,1.9,493.1,1.9z"/>
						<path fill="#202020" d="M465.6,1.2c0.6,0,1.1,0,1.6,0C466.6,1.2,466,1.2,465.6,1.2z"/>
						<path fill="#202020" d="M654.3,2.3L650,2.1C649.7,2.3,652.2,2.3,654.3,2.3z"/>
						<path fill="#202020" d="M764.4,120.8c0,0.9,0.1,1.7,0.2,2.3c0-0.7,0-1.5-0.1-2.2C764.4,120.9,764.4,120.9,764.4,120.8z"/>
						<path fill="#202020" d="M725.3,1.8l1.3,0c0.4-0.1,0.7-0.2,1.1-0.3L725.3,1.8z"/>
						<path fill="#202020" d="M767.6,22.2c0-1.2-0.5-1.7-0.8-2.1c0.2,0.7,0.3,1.6,0.4,2.7C767.3,22.7,767.5,22.6,767.6,22.2z"/>
						<path fill="#202020" d="M766.6,108.6l0.1,1.5C766.7,109.8,766.7,109.1,766.6,108.6z"/>
						<path fill="#202020" d="M686.3,1.7c-0.1-0.1-0.3-0.2-0.5-0.2C685.8,1.5,686,1.6,686.3,1.7z"/>
						<path fill="#202020" d="M690.9,165.1c0,0,0,0.1,0,0.1C691.2,165.2,691.3,165.1,690.9,165.1z"/>
						<path fill="#202020" d="M754.1,167.9l-0.9,0c-0.1,0.1-0.2,0.2-0.2,0.3L754.1,167.9z"/>
						<path fill="#202020" d="M415.2,0.5c0.1,0,0.1,0,0.2,0C416.8,0.4,416,0.5,415.2,0.5z"/>
						<path fill="#202020" d="M0.9,58.6c0.5-5.2,0.6,8.5,1.2,0.6C1.9,60,1.2,52.1,0.9,58.6z"/>
						<path fill="#202020" d="M764.4,119.4c0-0.7,0-1.5,0-2.2C764.4,118.2,764.4,118.9,764.4,119.4z"/>
						<path fill="#202020" d="M2.1,59.3L2.1,59.3l0.1-0.8C2.1,58.8,2.1,59,2.1,59.3z"/>
						<path fill="#202020" d="M299.2,0.8c0.2,0.1,0.7,0.2,1.2,0.2C300.4,1,300.1,1,299.2,0.8z"/>
						<path fill="#202020" d="M385.7,1.6l-2.1-0.1C384.4,1.6,385.1,1.6,385.7,1.6z"/>
						<path fill="#202020" d="M254.4,1.6c-1.2,0-1.6-0.1-3.1,0c0.1,0,0.3,0,0.5,0.1C252.3,1.6,253,1.5,254.4,1.6z"/>
						<path fill="#202020" d="M207.6,1.6c0.2,0,0.6,0.1,0.9,0.1c0.5,0,1,0,1.5,0L207.6,1.6z"/>
						<path fill="#202020" d="M548.9,165.4c1,0.2,1.7,0.3,2.2,0.5C550.3,165.5,557.2,165.4,548.9,165.4z"/>
						<path fill="#202020" d="M764.7,120.8c-0.1-0.3-0.2-0.7-0.2-1.4c0,0.5,0,1.1,0,1.6C764.5,121.1,764.6,121.1,764.7,120.8z"/>
						<path fill="#202020" d="M252.5,6.1L245,6C247.1,6,249.8,6.1,252.5,6.1z"/>
						<path fill="#202020" d="M213.8,165.5l1.7-0.1C214.9,165.4,214.2,165.4,213.8,165.5z"/>
						<path fill="#202020" d="M223,6.1c-1.3-0.2-2.7-0.3-4.2-0.4c-0.3,0-0.7,0.1-0.9,0.1L223,6.1z"/>
						<path fill="#202020" d="M551.1,165.9C551.1,165.9,551.1,165.9,551.1,165.9C551.1,165.9,551.1,165.9,551.1,165.9z"/>
						<path fill="#202020" d="M600,164.6c-7.1,0-3.3,0.7-4.8,1.1c-8.4,0.2-3.9-0.5-6.8-0.9c-5.3,0.2-9.3,0.9-13.2,0.8
							c-0.3-0.1-1.1-0.2-0.2-0.3c-5.6,0.6-16.5,0-23,0.8c-0.5-0.1-0.7-0.1-0.8-0.2c1.1,0.4,1.2,0.7,1,1c-3.2,0-5.9,0.5-7.1,0
							c1.9,0,2.1-0.2,3-0.3l-3.3,0.2c-3-0.7,4.5-0.2,4.5-0.8c-6.5,0.2-14,0.8-19,0.6c-1-0.7,11.6-0.2,5-0.8l7.7,0.3
							c-5.9-1.1,4.7,0.1-0.7-1.1c-10.1-0.2-11.3,0.3-21.4,0.1c-2.3,0.4,0.8,0.6-1.5,0.9c-14.3,0.7-11.3-1.7-21.8-0.8
							c-2.7,0.5-3.8,1.3-11.3,0.9l2.6-0.8c-9.8-0.1-5.6,1.1-15.8,0.6c1.8-0.3,7.7-0.3,6.2-0.3c-6.6-0.6-4.7,0.4-9.8,0.4l-1.1-0.7
							c-10.4,0.1-21.9,0.6-33.4,0.7c0.6-0.2,2.6-0.4-0.1-0.6c-14.6,0.3-31.1-0.1-45.1-0.5l-5.4,0.6c-1.2,0-2.3-0.3-1-0.4
							c-5.5-0.2-0.3,0.4-2.9,0.6c-3.1,0-4.1-0.3-2.1-0.5c-9.7,0.5-27.5,1.1-37.7,0.4l2-0.2c-7.9-0.2-8.9,1.2-16.3,0.7l1.4-0.1
							c-17.2-0.3-36.2,0.3-49.3-0.6c-2.5,0.8-17-0.4-18.1,0.8c-9.8-0.6-7-0.8-20.8-1.2c-3.7-0.1-5.5,0.7-10.1,0.9l-0.1-0.6l-6.2,0.6
							l-3.3-0.7l-4.3,0.2c1.7,0,3.6,0.3,3.4,0.5c-6.7,0.3-16.3-0.4-16.5-0.7l-15.8,0.5c0.4-0.2,3-0.3,5.1-0.5
							c-8.4,0.6-1.5-0.6-9.3-0.1c1,0.1-0.6,0.4-0.7,0.5c-3.9-0.4-12.6-0.4-19.1-0.2l1.2-0.4c-11.7-0.1-24.7,0.2-37.9,0.2
							c4.7,0.2,3.6,0.9-0.2,1l-1.5-0.7c-2.5,0.4,4,0.2-1.1,0.7c-4.9-0.1-3.3-0.7-0.5-1l-6,0.2c-0.4-0.2,1.1-0.3,1.4-0.5
							c-2.5,0.4-10.3-0.7-13.9,0l-0.3-0.2c-13.2,0-19.1,0.2-29.9,0.3c-0.2,0.6-4.4,0.4-7.6,0.9c-7.9-0.2-16.6-0.6-26.1-0.6
							c-6.7,0.3-1.9,0.5-4.9,0.8c-0.5-0.5-10-0.5-5.1-0.8c-5.7,0.1-9.3,0.1-13.4,0.1c-0.5,0-1,0-1.5,0c-0.4,0-0.9,0-1.3-0.1
							c-0.9-0.1-1.8-0.3-2.8-0.7c-1.9-0.8-4-2.3-5.3-5.1c0.3,1.3,1.2,2.6,0.6,2c-0.7-0.9-1.2-2.2-1.4-3.1c-0.2-1-0.1-1.6,0.1-1.5
							l0.1,0.6c-0.1-0.4-0.2-0.8-0.2-1.3l-0.1-0.7l0-0.8c0-1,0-2.1,0-3.2c0-2.2,0-4.4,0.1-6.6c0.1-4.5,0.3-9,0.4-13.5
							c0.3-8.9,0.6-17.4,0.1-23.9l0.1,0.7L5.1,95.3c0.1-6.1,0.4,3.7,0.7-0.9C4.9,80,5.9,71.6,5.4,59.8C6.1,55.2,6.1,47,6,38.5
							c0-4.3-0.1-8.7-0.1-12.7c0-2,0-4,0.1-5.9C6,19,6,18.1,6.1,17.2c0-0.4,0-0.8,0.1-1.3c0-0.2,0-0.4,0-0.6c0-0.2,0-0.3,0.1-0.5
							c0,0-0.1,0.1-0.2,0.3c-0.1,0.1-0.2,0.3-0.2,0.3c-0.1-0.7-0.1-1.2,0-1.6c0.1-0.4,0.2-0.8,0.3-1.1c0.3-0.6,0.6-1.1,1.1-1.9
							c-0.2,0-0.6,0.6-0.8,1c-0.2,0.4-0.4,0.6-0.2-0.2C7.2,9.2,9.4,7,12,6.1c0.6-0.2,1.3-0.4,2-0.5c0.3-0.1,0.7,0,1-0.1
							c0.4,0,0.8,0,1.3,0c1.7,0,3.5,0,5.2,0c7,0,14,0.1,21,0.2C56.7,6,70.9,6.3,84.8,6.5c10.2,0.1,5.8-1.8,18.6-1l-3.6,0.7
							c20.5-0.8,42,0,62.1-0.6c-1.2,0.2-1.2,0.4-3.2,0.3c4.2,0.5,15.7,0,15.8-0.4c3.1,0,0.7,0.4,2.7,0.6c4.3,0.3,10.7-0.6,13-0.1
							c0.4,0.1-1.2,0.2-2,0.2c2.8-0.2,12.9,0.1,10.3-0.5c7.5,0.3,14.4-0.2,20.5,0.1c3.9-0.6,12.9,0.3,14.2-0.6
							c-0.5,0.9,13.2,0.7,18,0.3c-1.6,0.3,4.1,0.3,2.3,0.7c5.4,0,10.4-0.2,9.5-0.6c10,1.1,20.2-0.9,25.8,0.5
							c16.2-0.5,31.2-0.8,45.7-1c-0.5,0.9-16.1,0.1-15.5,1c13.8-0.4,21.8-1.1,35.5-0.9c3.5,0.1-2,0.4-3.2,0.5
							c13.8-0.4,26.7,0.1,38.9-0.4c0,0.1-1.4,0.2-2.6,0.2c2.4,0,5.6,0.1,5.4-0.3l-2.4,0.1c-3.9-0.6,9.6-1.2,10-1.6
							c-4.1,1.2,12.1,0.3,5.6,1.8c1.6-0.1,3.6-0.3,3.2-0.5c2.4,0.1,3.1,0.2,0.7,0.6c8.7-0.2,5.6-0.7,13.4-0.7c0,0.2-1.6,0.3-2.4,0.5
							c4-0.4,8-0.8,14.6-0.6C435.2,4.8,436,5,434,5c11.4-0.1,19.4-1,31.9-0.7c-3.7,0.9,4.3,0.3,4.9,1l6.7-0.2l-2.7-0.4
							c5.9,0,11.1-0.5,16.2-0.3l-4.4,0.3l11-0.1l-6.2-0.3c6-0.4-0.6-0.9,7.2-0.7c-1.6,0.1,5.9,0,9,0.4l0,0c2.9-0.2,5.9-0.5,10.3-0.3
							c1.1,0.2-0.9,0.8-0.2,1c2.9-0.6,13.8-0.2,17.4-0.8c-1.2,0.2-1.3,0.5-0.9,0.6l2.4-0.5c2.7,0.2,3.1,0.2,2.7,0.6
							c8.2,0.1-2.6-0.9,7.1-0.5c-0.8,0-0.4,0.1-2,0.2c9.8,0.2,18.9-0.3,27.9-0.1c2.7,0.8-7.8,0.2-4.8,0.8c13-0.1,26.8-0.9,39.4-0.7
							l-2.3-0.1c1.7-1.1,9.3,0.5,15.7,0c-1.6,0.1-2,0.6-1.6,0.5c8.6,0.2,17.6-0.3,30.6-0.6l-1.6,0.3c5.1,0.2,13.3,0.1,18.8,0.3
							c1.6-0.3,4.7-0.2,2.8-0.6c16.9,1.6,32.1-0.8,47.1,0.5c-1.8,0-4.3,0.2-2.8,0.2l12.7-0.3c-1-0.5-1.7-0.3-4.3-0.6
							c1.6-0.3,5.2-0.5,8.4-0.5c-5.7,0.3,0,0.7,2.5,1c-0.4-0.1,0.4-0.3,0.2-0.4c6.7,0.8,1.1-0.9,10.2-0.4l-0.5,0.2
							c3.4-0.1,6.5-0.4,10.2-0.4c1.5,0.5-3.6,0.2-3.9,0.7c1.3,0,2.6-0.1,3.8-0.2c1.3-0.1,2.5-0.2,3.7,0c2.4,0.3,4.7,1.5,6,3.4
							c-0.8-0.7-1.8-1.5-2.9-2.1c-1.1-0.6-2.4-0.9-3.4-1.1c2.3,0.8,3.3,1.6,4.2,2.3c0.9,0.7,1.7,1.4,2.6,2.8l-0.2-0.3
							c0,0,0.1,0.1,0.2,0.3c0.1,0.2,0.3,0.5,0.4,0.8c0.2,0.3,0.3,0.7,0.5,1.1c0.1,0.4,0.3,0.9,0.4,1.4c0.3,0.9,0.3,1.9,0.3,2.6
							c0,0.4,0,0.7,0,1c0,0.2,0,0.4,0,0.4s0-0.6,0.1-1.1c0-0.5,0-1,0-1c0.1,0.4,0.2,0.7,0.3,1.1c0.1,0.4,0.1,0.8,0.2,1.2
							c0.1,0.8,0.2,1.6,0.2,2.5c0.1,1.7,0.1,3.4,0.1,5.2c0,3.6-0.1,7.4,0.4,11.7c-0.9-8.4-0.5-1.4-1.1-2c-0.2,2.2-0.4,5.6-0.5,4.6
							c0.5,4.1-0.4,6.8,0.3,12.6c-0.2,0.3,0,4.4-0.5,3.5c0.2,5.3,0.3-1.3,0.6-0.8c0.7,8.2-0.8,19.3,0.1,31.2
							c0.4,10.2,1,12.1,1.4,21.5c-0.3,3.2-0.7-2.6-0.7-2.6c-0.3,5.2-0.2,9,0,13.9c-0.2-1-0.3,0-0.5,1.5c0.1,3.9,0.7,2.6,0.4,7.7
							c-0.2-0.9-0.6-2-0.8-3.9c0.2,4.6,0.5,9.1,0.7,13.9c-0.3,1.3-0.5-2.9-0.7-4.5c0.2,5.3,0.3,13.8,0.8,15.5l0.2-3.4
							c0,1.9-0.5,1-0.6-0.4c-0.4-4.6,0.2-6.6,0.4-6.9l0.1,3.4c1.1-3.5-0.2-13.6-0.1-20.4l0.8,2.8l-0.7-7c0.2-1.5,0.7-2.5,0.8,0.9
							c0.4-4.9-0.3-4.3,0.2-8.5c0.1-0.5,0.1-0.3,0.1,0.2l-0.2-4.8c0.2,0.9,0.6-0.8,0.5,2.1c0.5-8.6-0.6-13.8,0-17l0.1,0.7
							c-0.3-11.9-0.6-1.1-1.3-10.1l1.5-6l-0.6-1.2c0-1.2,0.1-3.7,0.3-3.2c-0.4-4.6-0.3,0.8-0.7-1.9c0.6-5.9-0.3-16.3,0.7-17.6
							c-0.5-2.1-0.4,5.6-0.7-0.7c1-1.8-0.2-7.3,0.3-12.7c0.5,1.7,0.3,6.8,0.7,1.4c-0.9-3.3,0.2-10.5,0-15c-0.4-0.1-0.4-2.6-0.5-6
							c0-0.8,0-1.8-0.1-2.8c-0.1-1-0.3-2-0.7-3c-0.3-1-0.9-1.9-1.4-2.8c-0.6-0.8-1.3-1.6-2.1-2.3c0.1,0-0.4-0.6-1.7-1.5
							c-1.3-0.8-3.3-1.8-5.7-2c-0.3,0-0.6,0-0.9-0.1c-0.3,0-0.6,0-0.9,0c-0.6,0-1.2,0-1.8,0c-1.2,0-2.4-0.1-3.6-0.1
							c-2.4-0.1-4.6-0.1-6.4-0.2l0.2-0.1c-1.4,0.7-8.7,0.6-14,0.7c0.2-0.4,1.2-0.6,4.1-0.8l-5,0c-1.2,0.2-2.7,0.4-6,0.4l1.3-0.5
							c-6.7,0-13.4,0.6-22,0.3c-0.5,0.5,6.8,1.4-2.3,1.8c-0.3-0.3-0.7-0.8,1.7-0.9c-0.8,0-2.8,0.2-4.3,0.1l3.6-0.5
							c-3.9-0.2-2,0.4-5.2,0.3c0.1-0.4-2.3-0.3-1.9-0.6c0.8,0,2.7,0.2,3.9,0c-3.5-0.1-7.8-0.3-9.2-0.6c0.3,0.2,0,0.5-2.6,0.6
							c-6.7,0-2.3-0.5-6.2-0.7c-1.6,0.3-5.9,0-6,0.6c-2,0-2.3-0.3-3.1-0.4C665,2,652.3,1.8,656.2,2.4l0.9,0c-0.2,0-0.4,0-0.6,0
							c0,0,0,0,0,0h0c-11.3,0.6-23.5-0.3-34.7-0.1l0-0.2c-6.7,0.2-14.9,0.1-19.7,0.6c-2,0-4.7-0.4-3.8-0.6c-5.1,0.1-5.7,0.4-13.1,0
							c5.2-0.3-1.8-0.3,5.3-0.3c-6.7-0.2-8.2-0.5-15.3,0.1c2.4-0.5-5-0.6-8.2-0.5l4.7,0.4c-3.6,0.1-6.7,0-9.8,0l1.7-0.7
							c-13.6-0.8-24.6,1.4-34.9,0c-3.6,0.5,7.4,0.3,4.2,0.9C526.5,2,519.9,1,518,1c-8.6-0.4-8,1-17,0.7c1.1,0.2,2.2,0.9-4.5,1.1
							c-6.3-0.1-7.7-1-3.8-1.2c1.5,0,2.2,0.1,2.2,0.1c2-0.1,4.7-0.2,2.2-0.4l-0.8,0.2c-3.1-0.2-11.7-0.2-9.7-0.6
							c-4.7,0.2-2,0.4,1.5,0.5c-8-0.3-12.6,0-20.9-0.2c1.3,0.1,2.5,0.4,1.2,0.4c-12.1-0.3-5.3,0.5-13.6,0.6
							c-4.7-0.4,1.7-0.9-6.6-0.6c-5.1-0.2-1.1-0.6,0.9-0.8c-7.5,0.5-14.1-0.3-18.4-0.4l4-0.2c-2.4,0.1-4.3,0.1-6.3,0.1l2.3,0.5
							c-2.3-0.1-4.3-0.1-4.3-0.3c-2.4,0.3,1.8,0.8-2.9,1.2C420.4,1.5,414,2,413,1.4c9.8,0.2-1.1-0.6,7.2-0.7c-1.6,0.1-3.5,0.1-5.9,0
							c-0.4-0.1,0.3-0.1,1-0.2c-9.4-0.6-4.3,0.7-14,0.7c1.2-0.4-2.3-0.7-3.8-0.6c3.9,0,1.9,0.6-1.7,0.9c-6.2-0.3-6.8,0.2-10,0.2
							l3.7,0.1c-1.3,0.4-4.4,0.3-8.7,0.4c-0.4-0.3,3.9-0.2,2.4-0.3c-4.8,0.6-10.9-0.6-17.6-0.2c-3.1-0.2-0.3-0.7-3-0.8
							c-7.5,0.5-8.2-0.5-16.1-0.1c2.3,0.5,2.7,0.4-2.9,0.8l13-0.3l-8.3,0.7c3.9,0,8.3-0.3,10.6-0.2c-4,0.4-3.6,0.3-1.7,0.7
							c-5.4-0.7-10.7,0.4-16.9-0.1l0.2-1.2c-9.3-0.5-16.6,0.6-28.7,0.3l3.9,0.2c-1.6,0.5-7.5,0.1-11.4,0.3c0.4-0.4-2.1-0.5-3.8-0.8
							c0.2,0.3-8.9,0-10,0.8L285,1.3c-9.8-0.2-11.2,1.1-20.6,1c2.8-0.4-1.4-0.7,4.9-1c-3.1,0-6-0.1-6,0.2c-1.8-0.2-8.7,0.5-11.6,0.2
							c-1.3,0.2-1.8,0.6-5.3,0.6c-0.4-0.1,0-0.2,0-0.2c0,0.2-5.5,0.3-2.4,0.7c-9.7-1.2-27,0.1-35.5-1C201.6,1.9,193.4,2,187.2,2
							c0.4-0.1,0-0.2,1.2-0.2c-8.6-0.4-5.3,1.1-15,0.7c-5-0.6,5.2-0.3,2.1-0.6C174,0.7,163.6,2.2,157,1.4l1.6-0.1
							c-5-0.4-12.3,0.5-20.5,0.4c0,0,0.4-0.1,0-0.2c-5.6,0.7-16.2,0.9-24.1,1.1c2.5-0.5,3.6-0.3,2.1-0.8c-3.5,0.1,1,0.8-6,1
							c-2.3-0.3-7.4-0.5-8.1-1.1l6.7,0c-3.4-0.7-8.6,0-12.1-0.1L97,1.3C86.8,1.4,86.6,2.2,75.7,2.1l1.1,0.2c-6,0.8-5-0.4-11,0.1
							L64,1.7c-4,0.2-13.9,0.8-21,0.9C47,2,55.3,1.7,60.5,1.4c-3.9,0-13.3,0.1-15.4,0.4c1.6-0.1,3.6-0.3,5.1-0.1
							c-4.8,0.6-11.2,0.9-19,0.9c0.7-0.8-4.4-0.9-10.4-0.9c-1.5,0-3,0-4.6,0c-0.4,0-0.8,0-1.2,0c-0.4,0-0.9,0-1.3,0
							c-0.4,0.1-0.8,0.1-1.2,0.2c-0.4,0.1-0.8,0.2-1.2,0.3C9.9,2.5,8.5,3.2,7.4,3.9c-1.1,0.7-2,1.4-2.7,1.9
							c-1.3,1.6-2.3,3.4-2.9,5.3c-0.1,0.5-0.3,1-0.3,1.5c-0.1,0.5-0.2,1-0.2,1.5c0,0.5-0.1,1.1,0,1.5l0,1.3c0,3.5,0,7-0.1,10.6
							C1,34.5,0.8,42,0.9,50c1.2-5.7,0,4.7,1.3,3.7c0.1,3.8,0.1,5.2,0,5.5L1.4,70.6c-0.4,2.7-0.3-3.6-0.5-3.2
							c-0.1,8.2-0.5,3.4-0.8,8.9c0.4-1.1,0.6,2.9,0.5,7.5L1,77.3c0.7,11.5-1,9.9-0.4,21.5l-0.4-3.7c0.2,5.9,0,21.9,1,27.7
							c-0.1,1.1-0.5,2.4-0.6-0.2c-0.1,7.1,0.2,15,0.4,22.5c0.1,3.8,0.2,7.4,0.2,10.9c0.1,4,1.9,7.5,4.1,9.8c0,0-1.1-0.7-1.1-0.7
							c1.1,1.2,2.2,2,3.5,2.7c1.3,0.7,2.7,1.3,4.6,1.9c-0.2,0.1-1.3,0,0.1,0.3c0.4,0,1.2,0.1,2.1,0.1c0.2,0,0.5,0,0.7,0
							c0.2,0,0.4,0,0.7,0c0.5,0,0.9-0.1,1.5-0.1c2-0.1,4.3-0.2,6.1-0.1l-3,0.3c13.9,0.4,21.3-0.8,32.9-1c0,0.9,10.9,1.2,16.3,1.3
							l-0.2,0.1c16.1,0.1,27.4-0.7,42.3-1.1c9.3,1,31.4,0.4,46.3,0.9c-2.3-0.2,0.4-0.7,3-0.8c3.5,0.2,9.7-0.6,9.1,0.2l-1.2,0
							c2.6,0.8,9.8,0.6,15.4,0.6l0.9-1.1c14.7,1.5,38.5-0.6,46.5,0.8c3.5-0.3,7.9-0.3,11.4-0.5l-0.2,0.6c9.8,0.1,14.7,0.2,26.8,0.1
							l-2.5,0.4c6.8,0,8.6-1.6,15-1.7l1.9,0.8c11.9,0,24,0.7,35.8,0c-0.2,0.1-0.5,0.4-2.5,0.4c5.6,0,21.7,0.6,19.7-0.6
							c0.1,0.8,12.3,0.1,18.8-0.3l-1,0.6c5.4-0.7,5.6-0.9,13.2-1.1c1.8,0.1,1.6,0.4-0.8,0.3c6,0.3,4.7-0.5,12-0.2l-2.7,0.4
							c6.2,0,5.7-0.1,9.1-0.6c3.9-0.2,11.7,0.1,12.6,0.6c0.8-0.3,4.2-0.7,7.9-0.6c0.5,0.2-0.8,0.3-1.5,0.4
							c10.3,0.4,15.4-0.6,22.5-0.1c0.1,0.2,0.6,0.3,1.2,0.3c-8.2,0-14.8,0-14.2-0.1c0,0.5,6.6,0.6,1.4,1.3c5.3-0.4,14.4-1.2,20.9-1
							c0.3,0,0.6,0.1,0.9,0.2l-0.7,0.1c1.5,0.1,2.8,0,4.1-0.1c2.1,0.1,3.4,0.1,5.3,0.2c0.8,0.4,7.6,0.2,10.9,0.2
							c-0.3-0.6,4.1-0.5,0-0.9c0.5,0-0.6,0.1-2.8,0.1c-0.5,0-1.1,0-1.4,0.1c0.1,0,0.1,0,0.2,0c-2.2,0-5,0-8.2,0
							c2.6-0.3,5.3-0.5,9-0.2c1.7-0.4,3.6-0.7,4.6-0.9c4.5,0.8,13.2,1.2,14.4,1.7c10.1-0.3,23.8-0.2,30.1-1.3
							c2.9-0.1,3.3,0.3,4.4,0.5c-1.7,0.1-3.6,0.1-4.5,0.2c5.7-0.3,17-0.1,18.4-0.8c7.2,0.3-4.1,0.7,5.9,0.6l-1.3,0.2
							c19.5,1.2,31.8-1.9,53.4-0.4c-1.5-0.1-2.3-0.1-2.6-0.3c24.7,0.7,50.9-0.6,75.3,0.4c6.9,0.2,7.7-0.3,11.9-0.6l1.5,0.6l7.2-0.7
							c10.2-0.5,17.7,1.5,30.7,0.5l-1.7-0.4c4.7,0.1,14.8-0.2,14,0.2c0.5-0.1,1.5-0.4,3.3-0.2l0.1,0.3l11.4-0.5
							c8.9,0.2-1.4,1.3,11.6,1.3c4.8-0.1,13.7-0.9,11.9-1.1c-1.9,0-5-0.2-5.1-0.5l4.4-0.2c0.8-0.9,4.2-1.9-6.6-2.5L739,166l-2.4-0.5
							l6.3,0c-3.6-0.4-5.9,0-8.4,0.2c-0.6-0.2-1.7-0.4-3.2-0.5l-7.4,0.9c-0.9-0.4,3.3-0.7-1.6-0.9c-3.5,0.4,3.3,0.8-2.4,1.1
							c-3.6-0.4-2.6-0.8-6.8-0.4c-0.6-0.2,0.3-0.4,2-0.5c-3.8,0.3-10,0.1-11.9,0.6c-3.8-0.5-12.7,0.1-12.3-0.7
							c-1.2,0.2-6.6,0.7-10.1,0.7c6.3-1.1-12.9-0.1-11.3-1.2c-4.7,0.9-16.9,0.4-25.2,0.9c0.5-0.1,1.4-0.2,2.1-0.2
							c-4.7-0.1-6-0.4-9-0.5c-0.6,0.8-7.9,1-11.8,1.4c-5.7-0.8,3.5-0.9,1.7-1.6c0.3,0.6-9.9,0.6-8,1.2c-4.4-0.5-3.8-0.2-6-0.9
							c-0.8,1-4.1,0.2-7.7,0.8c-6.3-0.5-1.6-0.9-8.6-0.6C593.8,164.9,600,164.6,600,164.6z M434.8,166.3
							C434.8,166.3,434.8,166.3,434.8,166.3c1.4,0,2.6,0,3.4,0C437.5,166.2,436.5,166.2,434.8,166.3z M420.9,166.3c1.7,0,3.8,0,6,0
							c0.5,0.2,0,0.4-1.4,0.4C426.3,166.6,423,166.4,420.9,166.3z M450.3,170.2c-2.2,0.1-2.9,0-3.2-0.1c1,0,2.3,0,3.8-0.1
							c0.1,0,0.2,0,0.3-0.1C450.9,170,450.7,170.1,450.3,170.2z"/>
						<path fill="#202020" d="M454.2,169.4c0.3,0,0.5,0,0.9,0c-0.4,0-0.9-0.1-1.3-0.1c-0.3,0.1-0.5,0.1-0.8,0.2
							C453.4,169.4,453.9,169.4,454.2,169.4z"/>
						<path fill="#202020" d="M656.2,2.4l-0.3,0c0.2,0,0.5,0,0.6,0.1C656.4,2.4,656.4,2.4,656.2,2.4z"/>
						<polygon fill="#202020" points="229.3,165.2 229.3,165.3 230.5,165.2 						"/>
						<path fill="#202020" d="M732.7,4.3c0.1,0,0.4,0.1,1,0.1C733.6,4.4,733.2,4.4,732.7,4.3z"/>
						<path fill="#202020" d="M762.9,9.2c0,0,0.5,0.9,0.9,1.9c0.4,1,0.5,2,0.5,2C764.1,11.3,763.5,10.1,762.9,9.2z"/>
						<path fill="#202020" d="M764.6,33.4c0.1,0.3,0.2,0.4,0.2,0.5c0,0,0,0,0,0L764.6,33.4z"/>
						<path fill="#202020" d="M387.4,5.4c-0.3,0-0.7,0-1,0C384.1,5.5,385.7,5.5,387.4,5.4z"/>
						<path fill="#202020" d="M507.5,4.1c-1.3,0.1-2.5,0.2-3.9,0.3C505.8,4.4,507.5,4.4,507.5,4.1z"/>
						<path fill="#202020" d="M253.3,6.1C253.3,6.1,253.3,6.1,253.3,6.1c-0.3,0-0.5,0-0.8,0L253.3,6.1z"/>
						<path fill="#202020" d="M498.1,4.3c2.1,0.1,3.9,0.1,5.6,0C501.9,4.3,499.9,4.3,498.1,4.3z"/>
						<path fill="#202020" d="M764.3,143.5l0,1.2c0,0,0.1,0.1,0.1,0.1L764.3,143.5z"/>
						<path fill="#202020" d="M764.4,144.8l0.1,1.4C764.4,145.6,764.4,145,764.4,144.8z"/>
						<path fill="#202020" d="M764.6,149.1l-0.1-2.9C764.4,147.2,764.4,148.4,764.6,149.1z"/>
						<path fill="#202020" d="M764.6,109.9l-0.2-0.4C764.4,109.7,764.5,109.8,764.6,109.9z"/>
						<path fill="#202020" d="M764.5,99.7c0,2.4-0.4,6.1-0.3,9.5l0.2,0.3C764.1,107.9,764.8,102,764.5,99.7z"/>
						<path fill="#202020" d="M767,57l-0.2,8.6c0.2-1.5,0.5-3.5,0.6,0.4C768.1,55.2,766.9,68.2,767,57z"/>
						<path fill="#202020" d="M767.3,30.5c0.1,4.6,0.3-0.1,0.4,0.2C767.6,27.8,767.5,27.1,767.3,30.5z"/>
						<path fill="#202020" d="M596.4,2l0.5-0.5C593.3,1.5,596.8,1.6,596.4,2z"/>
						<polygon fill="#202020" points="559.7,4.6 563.1,4.9 564.8,4.4 						"/>
						<polygon fill="#202020" points="538,1 539.6,0.9 533.7,1.1 						"/>
						<path fill="#202020" d="M216,1.1l1.1,0.6C219.4,1.7,219.9,0.9,216,1.1z"/>
						<path fill="#202020" d="M76.9,1.8c-1.5-0.3-5.4-0.5-7.8-0.2C72.2,1.6,75.3,1.9,76.9,1.8z"/>
						<polygon fill="#202020" points="192.4,170.3 189.6,170.5 194.9,170.3 						"/>
					</g>
				</g>
			</g>
		</g>
	</g>
	<g>
		<g>
			<g>
				<g>
					<g>
						<path fill="#202020" d="M15.2,169.1c0.5-0.1,0.6-0.2,0.2-0.3c-0.2,0-0.5-0.1-0.9-0.2c-0.4,0-1-0.1-1.7-0.2
							c0,0.1-2.2,0.1-2.2,0.1c0,0,0.3,0.1,0.7,0.2c0.4,0.1,1,0.3,1.6,0.3c0.6,0.1,1.1,0.1,1.6,0.1C14.9,169.1,15.2,169.1,15.2,169.1
							z"/>
						<path fill="#202020" d="M3.2,156.7c-0.4-3.1-0.9-6.7-1.5-4.7c0.3,1.5,0.4,2.5,0.5,3.5c0.1,1,0.3,2.2,1.1,3.8
							c0.9,2.6,2.1,4.4,1.6,4.2c0.4,0.4,1,1.3,1.9,2c0.9,0.8,2,1.4,2.7,1.6c-1.5-1-3-2.4-4.2-4.2c-0.6-0.9-1.2-1.8-1.6-2.9
							c-0.2-0.5-0.4-1.1-0.6-1.6c-0.1-0.6-0.3-1.1-0.4-1.7C2.8,155.5,3,156.5,3.2,156.7z"/>
						<path fill="#202020" d="M115,4.2l-1.7-0.1C113.8,4.1,114.4,4.2,115,4.2z"/>
						<path fill="#202020" d="M276.2,4.5c-1.2,0-1.7,0.1-1.8,0.1C275.5,4.6,276.5,4.6,276.2,4.5z"/>
						<path fill="#202020" d="M303.7,5.3c-0.6,0-1.1,0-1.6,0C302.7,5.3,303.3,5.3,303.7,5.3z"/>
						<path fill="#202020" d="M115,4.2l4.3,0.2C119.6,4.2,117.1,4.2,115,4.2z"/>
						<path fill="#202020" d="M1.5,120.8c0,0.9,0.1,1.7,0.2,2.3c0-0.7,0-1.5-0.1-2.2C1.6,120.9,1.6,120.9,1.5,120.8z"/>
						<path fill="#202020" d="M44,4.7l-1.3,0c-0.4,0.1-0.7,0.2-1.1,0.3L44,4.7z"/>
						<path fill="#202020" d="M4.8,22.2c0-1.2-0.5-1.7-0.8-2.1c0.2,0.7,0.3,1.6,0.4,2.7C4.5,22.7,4.6,22.6,4.8,22.2z"/>
						<path fill="#202020" d="M3.8,108.6l0.1,1.5C3.9,109.8,3.8,109.1,3.8,108.6z"/>
						<path fill="#202020" d="M83,4.8C83.1,4.9,83.3,5,83.5,5C83.5,5,83.3,4.9,83,4.8z"/>
						<path fill="#202020" d="M78.4,170.4C78.5,170.4,78.4,170.3,78.4,170.4C78.1,170.4,78,170.4,78.4,170.4z"/>
						<path fill="#202020" d="M15.2,167.6l0.9,0c0.1-0.1,0.2-0.2,0.2-0.3L15.2,167.6z"/>
						<path fill="#202020" d="M354,6c-0.1,0-0.1,0-0.2,0C352.5,6,353.2,6,354,6z"/>
						<path fill="#202020" d="M763.7,58.6c0.5-5.2,0.6,8.5,1.2,0.6C764.7,60,764.1,52.1,763.7,58.6z"/>
						<path fill="#202020" d="M1.6,119.4c0-0.7,0-1.5,0-2.2C1.6,118.2,1.6,118.9,1.6,119.4z"/>
						<path fill="#202020" d="M764.9,59.3L764.9,59.3l0.1-0.8C765,58.8,765,59,764.9,59.3z"/>
						<path fill="#202020" d="M470.1,5.6c-0.2-0.1-0.7-0.2-1.2-0.2C468.9,5.5,469.2,5.5,470.1,5.6z"/>
						<path fill="#202020" d="M383.6,4.8l2.1,0.1C384.9,4.9,384.2,4.8,383.6,4.8z"/>
						<path fill="#202020" d="M514.9,4.8c1.2,0,1.6,0.1,3.1,0c-0.1,0-0.3,0-0.5-0.1C517,4.9,516.3,4.9,514.9,4.8z"/>
						<path fill="#202020" d="M561.6,4.8c-0.2,0-0.6-0.1-0.9-0.1c-0.5,0-1,0-1.5,0L561.6,4.8z"/>
						<path fill="#202020" d="M220.4,170.1c-1-0.2-1.7-0.3-2.2-0.5C219,170,212.1,170.2,220.4,170.1z"/>
						<path fill="#202020" d="M1.8,120.8c-0.1-0.3-0.2-0.7-0.2-1.4c0,0.5,0,1.1,0,1.6C1.7,121.1,1.8,121.1,1.8,120.8z"/>
						<path fill="#202020" d="M516.8,0.4l7.4,0.1C522.2,0.4,519.5,0.4,516.8,0.4z"/>
						<path fill="#202020" d="M555.5,170.1l-1.7,0.1C554.4,170.1,555,170.1,555.5,170.1z"/>
						<path fill="#202020" d="M546.3,0.4c1.3,0.2,2.7,0.3,4.2,0.4c0.3,0,0.7-0.1,0.9-0.1L546.3,0.4z"/>
						<path fill="#202020" d="M218.2,169.6C218.2,169.6,218.2,169.6,218.2,169.6C218.2,169.6,218.2,169.6,218.2,169.6z"/>
						<path fill="#202020" d="M169.3,171c7.1,0,3.3-0.7,4.8-1.1c8.4-0.2,3.9,0.5,6.8,0.9c5.3-0.2,9.3-0.9,13.2-0.8
							c0.3,0.1,1.1,0.2,0.2,0.3c5.6-0.6,16.5,0,23-0.8c0.5,0.1,0.7,0.1,0.8,0.2c-1.1-0.4-1.2-0.7-1-1c3.2,0,5.9-0.5,7.1,0
							c-1.9,0-2.1,0.2-3,0.3l3.3-0.2c3,0.7-4.5,0.2-4.5,0.8c6.5-0.2,14-0.8,19-0.6c1,0.7-11.6,0.2-5,0.8l-7.7-0.3
							c5.9,1.1-4.7-0.1,0.7,1.1c10.1,0.2,11.3-0.3,21.4-0.1c2.3-0.4-0.8-0.6,1.5-0.9c14.3-0.7,11.3,1.7,21.8,0.8
							c2.7-0.5,3.8-1.3,11.3-0.9l-2.6,0.8c9.8,0.1,5.6-1.1,15.8-0.6c-1.8,0.3-7.7,0.3-6.2,0.3c6.6,0.6,4.7-0.4,9.8-0.4l1.1,0.7
							c10.4-0.1,21.9-0.6,33.4-0.7c-0.6,0.2-2.6,0.4,0.1,0.6c14.6-0.3,31.1,0.1,45.1,0.5l5.4-0.6c1.2,0,2.3,0.3,1,0.4
							c5.5,0.2,0.3-0.4,2.9-0.6c3.1,0,4.1,0.3,2.1,0.5c9.7-0.5,27.5-1.1,37.7-0.4l-2,0.2c7.9,0.2,8.9-1.2,16.3-0.7l-1.4,0.1
							c17.2,0.3,36.2-0.3,49.3,0.6c2.5-0.8,17,0.4,18.1-0.8c9.8,0.6,7,0.8,20.8,1.2c3.7,0.1,5.5-0.7,10.1-0.9l0.1,0.6l6.2-0.6
							l3.3,0.7l4.3-0.2c-1.7,0-3.6-0.3-3.4-0.5c6.7-0.3,16.3,0.4,16.5,0.7l15.8-0.5c-0.4,0.2-3,0.3-5.1,0.5c8.4-0.6,1.5,0.6,9.3,0.1
							c-1-0.1,0.6-0.4,0.7-0.5c3.9,0.4,12.6,0.4,19.1,0.2l-1.2,0.4c11.7,0.1,24.7-0.2,37.9-0.2c-4.7-0.2-3.6-0.9,0.2-1l1.5,0.7
							c2.5-0.4-4-0.2,1.1-0.7c4.9,0.1,3.3,0.7,0.5,1l6-0.2c0.4,0.2-1.1,0.3-1.4,0.5c2.5-0.4,10.3,0.7,13.9,0l0.3,0.2
							c13.2,0,19.1-0.2,29.9-0.3c0.2-0.6,4.4-0.4,7.6-0.9c7.9,0.2,16.6,0.6,26.1,0.6c6.7-0.3,1.9-0.5,4.9-0.8
							c0.5,0.5,10,0.5,5.1,0.8c5.7-0.1,9.3-0.1,13.4-0.1c0.5,0,1,0,1.5,0c0.6,0,1.2,0,1.9-0.2c1.3-0.2,2.6-0.6,3.9-1.2
							c2.6-1.2,5.4-3.6,7-7.5c-0.9,1.6-2.2,3.1-1.7,2.2c0.8-1.2,1.5-2.7,2-3.9c0.4-1.2,0.6-2,0.7-1.8l-0.1,0.8
							c0.1-0.6,0.2-1.2,0.2-1.8l0-0.9l0-0.8c0-1,0-2.1,0-3.2c0-2.2,0-4.4,0.1-6.6c0.1-4.5,0.3-9,0.4-13.5c0.3-8.9,0.6-17.4,0.1-23.9
							l0.1,0.7l-0.6-13.4c0.1-6.1,0.4,3.7,0.7-0.9c-0.9-14.4,0.1-22.8-0.4-34.6c0.8-4.6,0.7-12.7,0.6-21.3c0-4.3-0.1-8.7-0.1-12.7
							c0-2,0-4,0.1-5.9c0-0.9,0.1-1.8,0.1-2.7c0-0.4,0-0.8,0.1-1.3c0-0.2,0-0.4,0-0.6c0-0.2,0-0.5,0-0.7c0,0-0.1,0.2-0.2,0.4
							c-0.1,0.2-0.2,0.4-0.2,0.4c-0.1-0.9-0.2-1.7-0.3-2.4c-0.1-0.7-0.2-1.2-0.3-1.7c-0.2-1-0.4-2-1-3.3c0,0.3,0.4,1.2,0.6,1.9
							c0.2,0.7,0.2,1-0.3-0.1c-1.5-3.8-4.7-6.8-8.6-8.2c-1-0.4-2-0.6-3-0.7c-0.5-0.1-1-0.1-1.5-0.1c-0.5,0-0.9,0-1.3,0
							c-1.7,0-3.5,0-5.2,0c-7,0-14-0.1-21-0.2c-14.1-0.2-28.3-0.5-42.2-0.7c-10.2-0.1-5.8,1.8-18.6,1l3.6-0.7
							c-20.5,0.8-42,0-62.1,0.6c1.2-0.2,1.2-0.4,3.2-0.3c-4.2-0.5-15.7,0-15.8,0.4c-3.1,0-0.7-0.4-2.7-0.6c-4.3-0.3-10.7,0.6-13,0.1
							c-0.4-0.1,1.2-0.2,2-0.2c-2.8,0.2-12.9-0.1-10.3,0.5c-7.5-0.3-14.4,0.2-20.5-0.1c-3.9,0.6-12.9-0.3-14.2,0.6
							c0.5-0.9-13.2-0.7-18-0.3c1.6-0.3-4.1-0.3-2.3-0.7c-5.4,0-10.4,0.2-9.5,0.6c-10-1.1-20.2,0.9-25.8-0.5
							c-16.2,0.5-31.2,0.8-45.7,1c0.5-0.9,16.1-0.1,15.5-1c-13.8,0.4-21.8,1.1-35.5,0.9c-3.5-0.1,2-0.4,3.2-0.5
							c-13.8,0.4-26.7-0.1-38.9,0.4c0-0.1,1.4-0.2,2.6-0.2c-2.4,0-5.6-0.1-5.4,0.3l2.4-0.1c3.9,0.6-9.6,1.2-10,1.6
							c4.1-1.2-12.1-0.3-5.6-1.8c-1.6,0.1-3.6,0.3-3.2,0.5c-2.4-0.1-3.1-0.2-0.7-0.6c-8.7,0.2-5.6,0.7-13.4,0.6
							c0-0.2,1.6-0.3,2.4-0.5c-4,0.4-8,0.8-14.6,0.6c0.4-0.1-0.4-0.3,1.6-0.3c-11.4,0.1-19.4,1-31.9,0.7c3.7-0.9-4.3-0.3-4.9-1
							l-6.7,0.2l2.7,0.4c-5.9,0-11.1,0.5-16.2,0.3l4.4-0.3l-11,0.1l6.2,0.3c-6,0.4,0.6,0.9-7.2,0.7c1.6-0.1-5.9,0-9-0.4l0,0
							c-2.9,0.2-5.9,0.5-10.3,0.3c-1.1-0.2,0.9-0.8,0.2-1c-2.9,0.6-13.8,0.2-17.4,0.8c1.2-0.2,1.3-0.5,0.9-0.6l-2.4,0.5
							c-2.7-0.2-3.1-0.2-2.7-0.6c-8.2-0.1,2.6,0.9-7.1,0.5c0.8,0,0.4-0.1,2-0.2C215.1,2,206,2.5,197,2.3c-2.7-0.8,7.8-0.2,4.8-0.8
							c-13,0.1-26.8,0.9-39.4,0.7l2.3,0.1c-1.7,1.1-9.3-0.5-15.7,0c1.6-0.1,2-0.6,1.6-0.5c-8.6-0.2-17.6,0.3-30.6,0.6l1.6-0.3
							C116.7,1.9,108.5,2,103,1.8c-1.6,0.3-4.7,0.2-2.8,0.6C83.3,0.9,68,3.3,53.1,2c1.8,0,4.3-0.2,2.8-0.2L43.2,2
							c1,0.5,1.7,0.3,4.3,0.6c-1.6,0.3-5.2,0.5-8.4,0.5c5.7-0.3,0-0.7-2.5-1c0.4,0.1-0.4,0.3-0.2,0.4C29.7,1.8,35.3,3.5,26.2,3
							l0.5-0.2c-3.4,0.1-6.5,0.4-10.2,0.4c-1.5-0.5,3.6-0.2,3.9-0.7c-1.3,0-2.6,0.1-3.8,0.2c-1.2,0.1-2.6,0.2-3.8,0.6
							c-2.5,0.7-4.5,2.1-6.4,3.6C7,5.9,8.1,5,9.3,4.3c1.2-0.7,2.5-1.2,3.6-1.5c-1.3,0.1-2.4,0.4-3.2,0.7C9.3,3.7,8.9,3.8,8.6,4
							C8.2,4.2,7.9,4.4,7.6,4.6c-1.1,0.8-2,1.6-3.3,3.2l0.3-0.3c0,0-0.1,0.1-0.3,0.3C4.2,8,4,8.3,3.7,8.7C3.5,9.1,3.3,9.6,3,10.1
							c-0.2,0.5-0.5,1.1-0.6,1.7C2,12.9,1.9,14.1,1.8,15c0,0.8-0.1,1.4-0.1,1.4s0-0.6,0.1-1.1C1.9,14.7,2,14.1,2,14.1l0.2,1.3
							c0.1,0.4,0.1,0.8,0.2,1.2c0.1,0.8,0.2,1.6,0.2,2.5c0.1,1.7,0.1,3.4,0.1,5.2c0,3.6-0.1,7.4,0.4,11.7c-0.9-8.4-0.5-1.4-1.1-2
							c-0.2,2.2-0.4,5.6-0.5,4.6c0.5,4.1-0.4,6.8,0.3,12.6c-0.2,0.3,0,4.4-0.5,3.5c0.2,5.3,0.3-1.3,0.6-0.8C2.5,62.1,1,73.2,2,85
							c0.4,10.2,1,12.1,1.4,21.5c-0.3,3.2-0.7-2.6-0.7-2.6c-0.3,5.2-0.2,9,0,13.9c-0.2-1-0.3,0-0.5,1.5c0.1,3.9,0.7,2.6,0.4,7.7
							c-0.2-0.9-0.6-2-0.8-3.9c0.2,4.6,0.5,9.1,0.7,13.9c-0.3,1.3-0.5-2.9-0.7-4.5c0.2,5.3,0.3,13.8,0.8,15.5l0.2-3.4
							c0,1.9-0.5,1-0.6-0.4c-0.4-4.6,0.2-6.6,0.4-6.9l0.1,3.4c1.1-3.5-0.2-13.6-0.1-20.4l0.8,2.8l-0.7-7c0.2-1.5,0.7-2.5,0.8,0.9
							c0.4-4.9-0.3-4.3,0.2-8.5c0.1-0.5,0.1-0.3,0.1,0.2l-0.2-4.8c0.2,0.9,0.6-0.8,0.5,2.1c0.5-8.6-0.6-13.8,0-17l0.1,0.7
							c-0.3-11.9-0.6-1.1-1.3-10.1l1.5-6l-0.6-1.2c0-1.2,0.1-3.7,0.3-3.2c-0.4-4.6-0.3,0.8-0.7-1.9C3.9,61.4,3,51.1,4,49.7
							c-0.5-2.1-0.4,5.6-0.7-0.7c1-1.8-0.2-7.3,0.3-12.7c0.5,1.7,0.3,6.8,0.7,1.4c-0.9-3.3,0.2-10.5,0-15c-0.4-0.1-0.4-2.6-0.5-6
							c0-0.4,0-0.9,0-1.3c0-0.4,0-0.9,0.1-1.3c0.1-0.9,0.3-1.8,0.6-2.7c0.3-0.9,0.8-1.7,1.2-2.5C6.4,8.2,7,7.4,7.6,6.8
							c0,0.1,0.5-0.4,1.7-1.1c1.2-0.7,2.9-1.4,5-1.5c0.3,0,0.5,0,0.8,0c0.3,0,0.6,0,0.9,0c0.6,0,1.2,0,1.8,0c1.2,0,2.4,0.1,3.6,0.1
							c2.4,0.1,4.6,0.1,6.4,0.2l-0.2,0.1c1.4-0.7,8.7-0.6,14-0.7c-0.2,0.4-1.2,0.6-4.1,0.8l5,0c1.2-0.2,2.7-0.4,6-0.4l-1.3,0.5
							c6.7,0,13.4-0.6,22-0.3c0.5-0.5-6.8-1.4,2.3-1.8C72,3,72.4,3.5,70,3.6c0.8,0,2.8-0.2,4.3-0.1L70.7,4c3.9,0.2,2-0.4,5.2-0.3
							c-0.1,0.4,2.3,0.3,1.9,0.6c-0.8,0-2.7-0.2-3.9,0c3.5,0.1,7.8,0.3,9.2,0.6c-0.3-0.2,0-0.5,2.6-0.6c6.7,0,2.3,0.5,6.2,0.7
							c1.6-0.3,5.9,0,6-0.6c2,0,2.3,0.3,3.1,0.4c3.5-0.3,16.1-0.1,12.2-0.7l-0.9,0c0.2,0,0.4,0,0.6,0c0,0,0,0,0,0h0
							c11.3-0.6,23.5,0.3,34.7,0.1l0,0.2c6.7-0.2,14.9-0.1,19.7-0.6c2,0,4.7,0.4,3.8,0.6c5.1-0.1,5.7-0.4,13.1,0
							c-5.2,0.3,1.8,0.3-5.3,0.3c6.7,0.2,8.2,0.5,15.3-0.1c-2.4,0.5,5,0.6,8.2,0.5l-4.7-0.4c3.6-0.1,6.7,0,9.8,0l-1.7,0.7
							c13.6,0.8,24.6-1.4,34.9,0c3.6-0.5-7.4-0.3-4.2-0.9c6.3,0.1,12.8,1,14.8,1c8.6,0.4,8-1,17-0.7c-1.1-0.2-2.2-0.9,4.5-1.1
							c6.3,0.1,7.7,1,3.8,1.2c-1.5,0-2.2-0.1-2.2-0.1c-2,0.1-4.7,0.2-2.2,0.4l0.8-0.2c3.1,0.2,11.7,0.2,9.7,0.6
							c4.7-0.2,2-0.4-1.5-0.5c8,0.3,12.6,0,20.9,0.2c-1.3-0.1-2.5-0.4-1.2-0.4c12.1,0.3,5.3-0.5,13.6-0.6c4.7,0.4-1.7,0.9,6.6,0.6
							c5.1,0.2,1.1,0.6-0.9,0.8c7.5-0.5,14.1,0.3,18.4,0.4l-4,0.2c2.4-0.1,4.3-0.1,6.3-0.1l-2.3-0.5c2.3,0.1,4.3,0.1,4.3,0.3
							c2.4-0.3-1.8-0.8,2.9-1.2c3.1,0.2,9.5-0.3,10.6,0.4c-9.8-0.2,1.1,0.6-7.2,0.7c1.6-0.1,3.5-0.1,5.9,0c0.4,0.1-0.3,0.1-1,0.2
							c9.4,0.6,4.3-0.7,14-0.7c-1.2,0.4,2.3,0.7,3.8,0.6c-3.9,0-1.9-0.6,1.7-0.9c6.2,0.3,6.8-0.2,10-0.2l-3.7-0.1
							c1.3-0.4,4.4-0.3,8.7-0.4c0.4,0.3-3.9,0.2-2.4,0.3c4.8-0.6,10.9,0.6,17.6,0.2c3.1,0.2,0.3,0.7,3,0.8c7.5-0.5,8.2,0.5,16.1,0.1
							c-2.3-0.5-2.7-0.4,2.9-0.8l-13,0.3l8.3-0.7c-3.9,0-8.3,0.3-10.6,0.2c4-0.4,3.6-0.3,1.7-0.7c5.4,0.7,10.7-0.4,16.9,0.1
							l-0.2,1.2c9.3,0.5,16.6-0.6,28.7-0.3l-3.9-0.2c1.6-0.5,7.5-0.1,11.4-0.3c-0.4,0.4,2.1,0.5,3.8,0.8c-0.2-0.3,8.9,0,10-0.8
							l5.4,0.5c9.8,0.2,11.2-1.1,20.6-1c-2.8,0.4,1.4,0.7-4.9,1c3.1,0,6,0.1,6-0.2c1.8,0.2,8.7-0.5,11.6-0.2
							c1.3-0.2,1.8-0.6,5.3-0.6c0.4,0.1,0,0.2,0,0.2c0-0.2,5.5-0.3,2.4-0.7c9.7,1.2,27-0.1,35.5,1c6.9-0.1,15.1-0.3,21.3-0.3
							c-0.4,0.1,0,0.2-1.2,0.2c8.6,0.4,5.3-1.1,15-0.7c5,0.6-5.2,0.3-2.1,0.6c1.4,1.3,11.8-0.2,18.4,0.6l-1.6,0.1
							c5,0.4,12.3-0.5,20.5-0.4c0,0-0.4,0.1,0,0.2c5.6-0.7,16.2-0.9,24.1-1.1c-2.5,0.5-3.6,0.3-2.1,0.8c3.5-0.1-1-0.8,6-1
							c2.3,0.3,7.4,0.5,8.1,1.1l-6.7,0c3.4,0.7,8.6,0,12.1,0.1l-0.4,0.3c10.2-0.1,10.4-0.9,21.3-0.8l-1.1-0.2c6-0.8,5,0.4,11-0.1
							l1.8,0.8c4-0.2,13.9-0.8,21-0.9c-4,0.6-12.3,0.9-17.5,1.2c3.9,0,13.3-0.1,15.4-0.4c-1.6,0.1-3.6,0.3-5.1,0.1
							c4.8-0.6,11.2-0.9,19-0.9c-0.7,0.8,4.4,0.9,10.4,0.9c1.5,0,3,0,4.6,0c0.4,0,0.8,0,1.1,0c0.3,0,0.7,0,1,0.1
							c0.3,0.1,0.6,0.1,0.9,0.2c0.3,0.1,0.6,0.2,0.9,0.3c1.2,0.4,2.1,1,2.9,1.6c0.7,0.6,1.3,1.3,1.5,1.8c1,1,1.8,2.2,2.2,3.6
							c0.1,0.3,0.2,0.7,0.3,1c0,0.4,0.1,0.7,0.2,1.1c0,0.4,0.1,0.7,0.1,1.1l0,1.3c0,3.5,0,7-0.1,10.6c-0.1,7.1-0.3,14.6-0.3,22.6
							c1.2-5.7,0,4.7,1.3,3.7c0.1,3.8,0.1,5.2,0,5.5l-0.7,11.4c-0.4,2.7-0.3-3.6-0.5-3.2c-0.1,8.2-0.5,3.4-0.8,8.9
							c0.4-1.1,0.6,2.9,0.5,7.5l0.6-6.6c0.7,11.5-1,9.9-0.4,21.5l-0.4-3.7c0.2,5.9,0,21.9,1,27.7c-0.1,1.1-0.5,2.4-0.6-0.2
							c-0.1,7.1,0.2,15,0.4,22.5c0.1,3.7,0.2,7.4,0.2,10.8c0,2.9-1.4,5.4-3.1,6.9c0,0,0.1-0.2,0.2-0.4c0.1-0.2,0.2-0.4,0.2-0.4
							c-0.6,0.8-1.3,1.5-2.1,2.2c-0.8,0.6-1.8,1.1-3.2,1.3c0.1-0.2,0.8-0.5-0.2-0.3c-0.3,0.1-0.7,0.2-1.4,0.3c-0.2,0-0.3,0-0.5,0.1
							c-0.2,0-0.4,0-0.7,0c-0.5,0-0.9,0.1-1.5,0.1c-2,0.1-4.3,0.2-6.1,0.1l3-0.3c-13.9-0.4-21.3,0.8-32.9,1c0-0.9-10.9-1.2-16.3-1.3
							l0.2-0.1c-16.1-0.1-27.4,0.7-42.3,1.1c-9.3-1-31.4-0.4-46.3-0.9c2.3,0.2-0.4,0.7-3,0.8c-3.5-0.2-9.7,0.6-9.1-0.2l1.2,0
							c-2.6-0.8-9.8-0.6-15.4-0.6l-0.9,1.1c-14.7-1.5-38.5,0.6-46.5-0.8c-3.5,0.3-7.9,0.3-11.4,0.5l0.2-0.6
							c-9.8-0.1-14.7-0.2-26.8-0.1l2.5-0.4c-6.8,0-8.6,1.6-15,1.7l-1.9-0.8c-11.9,0-24-0.7-35.8,0c0.2-0.1,0.5-0.4,2.5-0.4
							c-5.6,0-21.7-0.6-19.7,0.6c-0.1-0.8-12.3-0.1-18.8,0.3l1-0.6c-5.4,0.7-5.6,0.9-13.2,1.1c-1.8-0.1-1.6-0.4,0.8-0.3
							c-6-0.3-4.7,0.5-12,0.2l2.7-0.4c-6.2,0-5.7,0.1-9.1,0.6c-3.9,0.2-11.7-0.1-12.6-0.6c-0.8,0.3-4.2,0.7-7.9,0.6
							c-0.5-0.2,0.8-0.3,1.5-0.4c-10.3-0.4-15.4,0.6-22.5,0.1c-0.1-0.2-0.6-0.3-1.2-0.3c8.2,0,14.8,0,14.2,0.1
							c0-0.5-6.6-0.6-1.4-1.3c-5.3,0.4-14.4,1.2-20.9,1c-0.3,0-0.6-0.1-0.9-0.2l0.7-0.1c-1.5-0.1-2.8,0-4.1,0.1
							c-2.1-0.1-3.4-0.1-5.3-0.2c-0.8-0.4-7.6-0.2-10.9-0.2c0.3,0.6-4.1,0.5,0,0.9c-0.5,0,0.6-0.1,2.8-0.1c0.5,0,1.1,0,1.4-0.1
							c-0.1,0-0.1,0-0.2,0c2.2,0,5,0,8.2,0c-2.6,0.3-5.3,0.5-9,0.2c-1.7,0.4-3.6,0.7-4.6,0.9c-4.5-0.8-13.2-1.2-14.4-1.7
							c-10.1,0.3-23.8,0.2-30.1,1.3c-2.9,0.1-3.3-0.3-4.4-0.5c1.7-0.1,3.6-0.1,4.5-0.2c-5.7,0.3-17,0.1-18.4,0.8
							c-7.2-0.3,4.1-0.7-5.9-0.6l1.3-0.2c-19.5-1.2-31.8,1.9-53.4,0.4c1.5,0.1,2.3,0.1,2.6,0.3c-24.7-0.7-50.9,0.6-75.3-0.4
							c-6.9-0.2-7.7,0.3-11.9,0.6l-1.5-0.6l-7.2,0.7c-10.2,0.5-17.7-1.5-30.7-0.5l1.7,0.4c-4.7-0.1-14.8,0.2-14-0.2
							c-0.5,0.1-1.5,0.4-3.3,0.2l-0.1-0.3l-11.4,0.5c-8.9-0.2,1.4-1.3-11.6-1.3c-4.8,0.1-13.7,0.9-11.9,1.1c1.9,0,5,0.2,5.1,0.5
							l-4.4,0.2c-0.8,0.9-4.2,1.9,6.6,2.5l7.5-0.6l2.4,0.5l-6.3,0c3.6,0.4,5.9,0,8.4-0.2c0.6,0.2,1.7,0.4,3.2,0.5l7.4-0.9
							c0.9,0.4-3.3,0.7,1.6,0.9c3.5-0.4-3.3-0.8,2.4-1.1c3.6,0.4,2.6,0.8,6.8,0.4c0.6,0.2-0.3,0.4-2,0.5c3.8-0.3,10-0.1,11.9-0.6
							c3.8,0.5,12.7-0.1,12.3,0.7c1.2-0.2,6.6-0.7,10.1-0.7c-6.3,1.1,12.9,0.1,11.3,1.2c4.7-0.9,16.9-0.4,25.2-0.9
							c-0.5,0.1-1.4,0.2-2.1,0.2c4.7,0.1,6,0.4,9,0.5c0.6-0.8,7.9-1,11.8-1.4c5.7,0.8-3.5,0.9-1.7,1.6c-0.3-0.6,9.9-0.6,8-1.2
							c4.4,0.5,3.8,0.2,6,0.9c0.8-1,4.1-0.2,7.7-0.8c6.3,0.5,1.6,0.9,8.6,0.6C175.5,170.6,169.3,171,169.3,171z M334.5,169.3
							C334.5,169.3,334.5,169.3,334.5,169.3c-1.4,0-2.6,0-3.4,0C331.8,169.3,332.8,169.3,334.5,169.3z M348.4,169.3
							c-1.7,0-3.8,0-6,0c-0.5-0.2,0-0.4,1.4-0.4C343,169,346.3,169.1,348.4,169.3z M319,165.4c2.2-0.1,2.9,0,3.2,0.1
							c-1,0-2.3,0-3.8,0.1c-0.1,0-0.2,0-0.3,0.1C318.4,165.5,318.6,165.4,319,165.4z"/>
						<path fill="#202020" d="M315.1,166.1c-0.3,0-0.5,0-0.9,0c0.4,0,0.9,0.1,1.3,0.1c0.3-0.1,0.5-0.1,0.8-0.2
							C315.8,166.1,315.4,166.1,315.1,166.1z"/>
						<path fill="#202020" d="M113.1,4.1l0.3,0c-0.2,0-0.5,0-0.6-0.1C112.9,4,112.9,4.1,113.1,4.1z"/>
						<polygon fill="#202020" points="540,170.3 540,170.2 538.8,170.3 						"/>
						<path fill="#202020" d="M36.6,2.1c-0.1,0-0.4-0.1-1-0.1C35.7,2,36.1,2.1,36.6,2.1z"/>
						<path fill="#202020" d="M4.3,7.8c0,0-0.8,1-1.3,2.2c-0.6,1.2-0.9,2.4-0.9,2.4C2.7,10.3,3.6,8.8,4.3,7.8z"/>
						<path fill="#202020" d="M1.7,33.4c0.1,0.3,0.2,0.4,0.2,0.5c0,0,0,0,0,0L1.7,33.4z"/>
						<path fill="#202020" d="M381.9,1.1c0.3,0,0.7,0,1,0C385.2,0.9,383.6,1,381.9,1.1z"/>
						<path fill="#202020" d="M261.8,2.4c1.3-0.1,2.5-0.2,3.9-0.3C263.5,2.1,261.8,2.1,261.8,2.4z"/>
						<path fill="#202020" d="M516,0.4C516,0.4,516,0.4,516,0.4c0.3,0,0.5,0,0.8,0L516,0.4z"/>
						<path fill="#202020" d="M271.2,2.1c-2.1-0.1-3.9-0.1-5.6,0C267.4,2.2,269.4,2.2,271.2,2.1z"/>
						<path fill="#202020" d="M1.5,143.5l0,1.2c0,0,0.1,0.1,0.1,0.1L1.5,143.5z"/>
						<path fill="#202020" d="M1.5,144.8l0.1,1.4C1.6,145.6,1.6,145,1.5,144.8z"/>
						<path fill="#202020" d="M1.8,149.1l-0.1-2.9C1.6,147.2,1.6,148.4,1.8,149.1z"/>
						<path fill="#202020" d="M1.7,109.9l-0.2-0.4C1.6,109.7,1.6,109.8,1.7,109.9z"/>
						<path fill="#202020" d="M1.7,99.7c0,2.4-0.4,6.1-0.3,9.5l0.2,0.3C1.2,107.9,2,102,1.7,99.7z"/>
						<path fill="#202020" d="M4.2,57L4,65.6c0.2-1.5,0.5-3.5,0.6,0.4C5.2,55.2,4.1,68.2,4.2,57z"/>
						<path fill="#202020" d="M4.5,30.5c0.1,4.6,0.3-0.1,0.4,0.2C4.8,27.8,4.7,27.1,4.5,30.5z"/>
						<path fill="#202020" d="M172.9,4.5L172.5,5C176,5,172.5,4.8,172.9,4.5z"/>
						<polygon fill="#202020" points="209.6,1.9 206.1,1.6 204.5,2 						"/>
						<polygon fill="#202020" points="231.3,5.5 229.7,5.6 235.6,5.4 						"/>
						<path fill="#202020" d="M553.3,5.3l-1.1-0.6C549.9,4.8,549.4,5.5,553.3,5.3z"/>
						<path fill="#202020" d="M692.4,4.7c1.5,0.3,5.4,0.5,7.8,0.2C697.1,4.9,694,4.6,692.4,4.7z"/>
						<polygon fill="#202020" points="576.9,165.3 579.7,165.1 574.4,165.2 						"/>
					</g>
				</g>
			</g>
		</g>
	</g>
</g>
</svg>
