<!-- Generator: Adobe Illustrator 18.1.1, SVG Export Plug-In  -->
<svg version="1.1"
	 xmlns="http://www.w3.org/2000/svg" xmlns:xlink="http://www.w3.org/1999/xlink" xmlns:a="http://ns.adobe.com/AdobeSVGViewerExtensions/3.0/"
	 x="0px" y="0px" width="74.9px" height="104px" viewBox="0 0 74.9 104" enable-background="new 0 0 74.9 104" xml:space="preserve"
	>
<defs>
</defs>
<g>
	<path fill="#F2690C" d="M60,9c-0.7,0.5-2,0.3-4-0.8c-1.4-0.7-2.8-1.2-4.3-1.3c-1.5-0.1-4-0.1-7.5,0.2c-5.7,0.5-11,1.9-16.1,4.3
		c-5,2.3-8.7,5.1-10.8,8.4C12.3,26.9,8.9,34.1,7,41.3c-1.1,4.5-1.4,10.3-0.7,17.5C7,66,8.3,71.4,10.1,75.1c2,3.9,4.9,8.2,8.7,13
		c3.8,4.8,6.6,7.5,8.3,8.3c2.2,1,6.6,1.4,13,1.4c6.5,0,15.2-2.4,15.5-1.7c0.3,0.7,9.7-5.4,9.2-10.8c-0.4-4.3-7.6,0.6-7.8,1.6
		c-0.2,0.9-5.4,2.5-9.3,3c-3.9,0.5-7.5,0.4-10.8-0.1c-1.9-0.3-3.3-0.5-4.4-0.8c-1.1-0.3-2.2-0.6-3.3-1.1c-1.1-0.5-2-1-2.6-1.5
		c-0.6-0.5-1.4-1.4-2.2-2.5c-0.9-1.2-1.6-2.4-2.3-3.6c-0.7-1.2-1.5-3-2.6-5.2c-1.8-3.7-2.9-6.4-3.3-8c-0.4-1.7-0.5-4.8-0.5-9.5
		c0-3.8,0.2-6.7,0.5-8.8c0.3-2,0.9-3.9,1.8-5.7c1.5-3.1,2.2-5.2,2.2-6.3c0-0.4,0.1-0.8,0.3-1.1c0.2-0.3,0.4-0.5,0.6-0.5
		c0.2,0,0.6-0.4,1-1.3c0.4-0.9,0.9-1.9,1.3-3.1c1.3-4.3,4.2-8.2,8.8-11.8c4.5-3.5,9.5-5.8,15-6.9c4.5-0.9,7.9-0.8,10.4,0.2
		c2.5,1,3.5,2.6,3.1,4.9c-1,4.7-1.4,7.5-1.2,8.3c0.2,0.7,0.9,1.1,2.3,1.3c0.2,0,0.5,0.1,1,0.1c1.8,0.2,2.9,0.2,3.3,0
		c0.4-0.2,0.6-1.1,0.7-2.5c0.1-2,0.2-3.2,0.3-3.8c0.2-1,0.6-3.2,1.2-6.9c0.5-3.6,0.9-6.1,1-7.5C69.5,4,60.7,8.5,60,9z"/>
	<path d="M74.9,3.6c-1.4,5.1-2,8.4-2,9.9s-0.2,2.5-0.7,2.9c-0.5,0.5-0.8,2.4-1.1,5.7c-0.3,3.3-0.6,5.5-1,6.6c-0.4,1-0.6,2-0.4,2.7
		c0,0.4-0.8,0.6-2.4,0.7c-1.6,0.1-3.5,0-5.7-0.3c-2.2-0.3-3.9-0.7-5.2-1.2c-1-0.3-1.6-0.7-1.9-1.2c-0.3-0.5-0.3-1.2-0.1-2
		c0.4-1.6,0.8-3.8,1.3-6.8c0.3-2.1,0.4-3.4,0.1-3.8c-0.2-0.4-1.1-0.7-2.5-0.9c-1.7-0.2-4.2,0.2-7.4,1.2c-3.2,1-6,2.3-8.5,3.9
		c-1.9,1.1-3.9,3.1-6.2,5.8c-2.3,2.8-3.4,4.7-3.5,5.8c0,0.9-0.3,2-1,3.2c-2.5,4.5-4,7.9-4.6,10.1c-0.6,2.2-0.9,5.1-0.9,8.8
		c0,4.6,0.5,8.5,1.3,11.7c0.8,3.2,2.3,6.5,4.3,9.9c1.7,2.9,3.6,4.8,5.7,5.8c2.1,1,5.2,1.6,9.4,1.7c1.5,0,2.6,0.1,3.5,0
		c0.9,0,1.7-0.1,2.4-0.3c0.7-0.2,1.2-0.4,1.6-0.6c0.3-0.2,0.6-0.6,0.8-1.2c0.2-0.5,9.8-7.2,13.3-7.4c3.5-0.2,5.3,0,5.6,0.4
		c0.7,1.1-4,24.3-4,24.3s-14.6,3.6-15.3,3.4c-0.7-0.2-2.6,0.2-5.6,1c-1.5,0.4-3,0.6-4.4,0.5c-1.5-0.1-3.4-0.4-5.7-1.1
		c-4.2-1.1-7.2-1.6-8.9-1.6c-1.8,0-4.2-1.6-7.5-4.8C12.9,91.7,9,86.5,6,80.9c-3-5.5-4.8-10.9-5.3-16c-1-9.9-1-17.7-0.2-23.5
		c0.8-5.8,2.8-11.3,5.9-16.6l3.9-6.8c1.3-2.3,3-4.3,5.3-6c2.3-1.8,5.5-3.6,9.7-5.6c4.8-2.3,10-4,15.6-5.3C46.6,0,50.6-0.3,53,0.4
		c1.4,0.4,2.3,0.4,2.6,0.1C56,0.1,74.9,3.6,74.9,3.6z M60,9c-0.7,0.5-2,0.3-4-0.8c-1.4-0.7-2.8-1.2-4.3-1.3c-1.5-0.1-4-0.1-7.5,0.2
		c-5.7,0.5-11,1.9-16.1,4.3c-5,2.3-8.7,5.1-10.8,8.4C12.3,26.9,8.9,34.1,7,41.3c-1.1,4.5-1.4,10.3-0.7,17.5C7,66,8.3,71.4,10.1,75.1
		c2,3.9,4.9,8.2,8.7,13c3.8,4.8,6.6,7.5,8.3,8.3c2.2,1,6.6,1.4,13,1.4c6.5,0,15.2-2.4,15.5-1.7c0.3,0.7,9.7-5.4,9.2-10.8
		c-0.4-4.3-7.6,0.6-7.8,1.6c-0.2,0.9-5.4,2.5-9.3,3c-3.9,0.5-7.5,0.4-10.8-0.1c-1.9-0.3-3.3-0.5-4.4-0.8c-1.1-0.3-2.2-0.6-3.3-1.1
		c-1.1-0.5-2-1-2.6-1.5c-0.6-0.5-1.4-1.4-2.2-2.5c-0.9-1.2-1.6-2.4-2.3-3.6c-0.7-1.2-1.5-3-2.6-5.2c-1.8-3.7-2.9-6.4-3.3-8
		c-0.4-1.7-0.5-4.8-0.5-9.5c0-3.8,0.2-6.7,0.5-8.8c0.3-2,0.9-3.9,1.8-5.7c1.5-3.1,2.2-5.2,2.2-6.3c0-0.4,0.1-0.8,0.3-1.1
		c0.2-0.3,0.4-0.5,0.6-0.5c0.2,0,0.6-0.4,1-1.3c0.4-0.9,0.9-1.9,1.3-3.1c1.3-4.3,4.2-8.2,8.8-11.8c4.5-3.5,9.5-5.8,15-6.9
		c4.5-0.9,7.9-0.8,10.4,0.2c2.5,1,3.5,2.6,3.1,4.9c-1,4.7-1.4,7.5-1.2,8.3c0.2,0.7,0.9,1.1,2.3,1.3c0.2,0,0.5,0.1,1,0.1
		c1.8,0.2,2.9,0.2,3.3,0c0.4-0.2,0.6-1.1,0.7-2.5c0.1-2,0.2-3.2,0.3-3.8c0.2-1,0.6-3.2,1.2-6.9c0.5-3.6,0.9-6.1,1-7.5
		C69.5,4,60.7,8.5,60,9z"/>
</g>
</svg>
