<!-- Generator: Adobe Illustrator 18.1.1, SVG Export Plug-In  -->
<svg version="1.1"
	 xmlns="http://www.w3.org/2000/svg" xmlns:xlink="http://www.w3.org/1999/xlink" xmlns:a="http://ns.adobe.com/AdobeSVGViewerExtensions/3.0/"
	 x="0px" y="0px" width="59.5px" height="71.8px" viewBox="0 0 59.5 71.8" enable-background="new 0 0 59.5 71.8"
	 xml:space="preserve">
<defs>
</defs>
<g>
	<path fill="#15DEED" d="M41.7,7c-0.2-0.7-2.4,2.1-1.9,2.5c1,0.8,1.5,1.6,1.5,2.4c0,0.8-0.6,1.8-1.7,3c-0.9,0.9-1.3,1.6-1.3,2.1
		c0,0.5,0.4,1.4,1.2,2.7c0.6,1,5.3-4,5.3-4C43.1,11.2,42.1,8.3,41.7,7z"/>
	<g>
		<path fill="#15DEED" d="M36.1,16.1c0-0.5-0.3-0.9-1-1.2c-0.7-0.3-1.4-0.3-2.1-0.2c-0.8,0.1-1.3,0.5-1.6,1
			c-0.4,0.7-1.3,1.1-2.7,1.1c-0.6,0-1.1,0.1-1.5,0.3c-0.4,0.2-0.6,0.4-0.6,0.7c0,0.2-0.3,0.5-0.8,0.8c-0.5,0.3-1.2,0.6-1.9,0.8
			c-1.6,0.4-4.1,2.1-7.3,5c-3.3,2.9-5.4,5.3-6.4,7.3c-1,2-2,4.6-3.1,7.7c-1.1,3.1-1.8,5.6-2.2,7.5c-0.4,2.1-0.7,3.3-0.9,3.6
			c-0.2,0.3,0.2,1.7,1.3,4.2c1.1,2.5,1.7,4.1,1.8,4.8c0.3,1.8,1.1,3.1,2.4,4c1.3,0.9,3.5,1.7,6.6,2.3c4.5,0.9,7.1,1.2,7.8,1
			c0.8-0.3,2.4-0.5,4.8-0.9c3.3-0.4,6.4-1.4,9.2-3c2.9-1.6,10.8-5.2,11.6-2.6c0.6,1.8,4-6.3,2.9-12.1c-0.9-3.9-1.5-2.4-2-3.3
			c-0.5-1-3.2,1.8-3.3,2.1c0,0.3-0.4,0.4-1,0.4c-0.5,0-0.9,0.2-1.3,0.6c-0.4,0.4-0.7,0.9-0.9,1.5c-0.2,0.6-0.5,1.1-0.9,1.5
			s-0.8,0.6-1.2,0.6c-1,0-1.9,0.5-2.9,1.4c-2.4,2.4-6,4-11,4.7c-5,0.7-8.8,0.2-11.6-1.5c-4-2.3-6.1-5.2-6.5-8.5c-0.4-3.4,1-8,4-14.1
			c1.7-3.3,3.1-5.6,4.3-7.1c1.2-1.5,3.1-3.1,5.6-4.8c4-2.8,7-4.2,9.2-4.2C35,17.5,36.1,17.1,36.1,16.1z"/>
		<path d="M45,0.3c1,2.4,1.6,3.8,1.6,4.4c0,0.9,0.7,3.5,2.1,7.9c2.5,7.9-12.7,11.5-14.5,11.3c-1.8-0.2-3.8,0.5-6,2.3
			c-3.1,2.5-5.6,4.7-7.4,6.6c-1.8,1.9-2.7,3.2-2.8,4.1c0,1-0.5,2.2-1.5,3.5c-1,1.3-1.5,2.8-1.5,4.7c0,1.8,0.4,3.3,1.2,4.4
			c0.8,1,2.7,1.9,5.7,2.7c3,0.8,4.8,1,5.1,0.3c0.4-0.6,1.3-0.9,2.8-0.9c0.6,0,1.5-0.3,2.8-0.9c1.3-0.6,2.5-1.2,3.6-2
			c2.9-1.9,4.4-2.9,4.7-3.1c0.3-0.2,14.1-9,14.5-4.9c0.4,4.1,0.9,6.7,1.5,7.9c0.6,1.2,1.1,4.9,1.6,11.2l0.7,9.3l-5,1.6
			c-2.4,0.8-3.9,1.1-4.5,1.1c-0.6,0-1.3-0.6-2-1.6c-1-1.5-5.3-4.1-7.4-2.9c-2.1,1.2-4.5,2.3-7.3,3.3c-2.2,0.9-5.3,1.3-9.3,1.3
			c-4,0-7.9-0.5-11.6-1.3c-2.6-0.6-4.4-1.3-5.5-1.9c-1-0.6-2.1-1.8-3.1-3.3c-2.2-3.3-3.5-7.9-3.8-14c-0.3-6,0.4-10.8,2.3-14.1
			C3,35.9,4.1,33.5,5.7,30c1.5-3.5,3.9-6.6,6.9-9.2c3.1-2.6,7.1-5,12.1-7.2c5.5-2.3,8.2-3.6,8.2-3.9C32.9,9.4,44-2,45,0.3z
			 M36.1,16.1c0-0.5-0.3-0.9-1-1.2c-0.7-0.3-1.4-0.3-2.1-0.2c-0.8,0.1-1.3,0.5-1.6,1c-0.4,0.7-1.3,1.1-2.7,1.1
			c-0.6,0-1.1,0.1-1.5,0.3c-0.4,0.2-0.6,0.4-0.6,0.7c0,0.2-0.3,0.5-0.8,0.8c-0.5,0.3-1.2,0.6-1.9,0.8c-1.6,0.4-4.1,2.1-7.3,5
			c-3.3,2.9-5.4,5.3-6.4,7.3c-1,2-2,4.6-3.1,7.7c-1.1,3.1-1.8,5.6-2.2,7.5c-0.4,2.1-0.7,3.3-0.9,3.6c-0.2,0.3,0.2,1.7,1.3,4.2
			c1.1,2.5,1.7,4.1,1.8,4.8c0.3,1.8,1.1,3.1,2.4,4c1.3,0.9,3.5,1.7,6.6,2.3c4.5,0.9,7.1,1.2,7.8,1c0.8-0.3,2.4-0.5,4.8-0.9
			c3.3-0.4,6.4-1.4,9.2-3c2.9-1.6,10.8-5.2,11.6-2.6c0.6,1.8,4-6.3,2.9-12.1c-0.9-3.9-1.5-2.4-2-3.3c-0.5-1-3.2,1.8-3.3,2.1
			c0,0.3-0.4,0.4-1,0.4c-0.5,0-0.9,0.2-1.3,0.6c-0.4,0.4-0.7,0.9-0.9,1.5c-0.2,0.6-0.5,1.1-0.9,1.5s-0.8,0.6-1.2,0.6
			c-1,0-1.9,0.5-2.9,1.4c-2.4,2.4-6,4-11,4.7c-5,0.7-8.8,0.2-11.6-1.5c-4-2.3-6.1-5.2-6.5-8.5c-0.4-3.4,1-8,4-14.1
			c1.7-3.3,3.1-5.6,4.3-7.1c1.2-1.5,3.1-3.1,5.6-4.8c4-2.8,7-4.2,9.2-4.2C35,17.5,36.1,17.1,36.1,16.1z M41.7,7
			c-0.2-0.7-2.4,2.1-1.9,2.5c1,0.8,1.5,1.6,1.5,2.4c0,0.8-0.6,1.8-1.7,3c-0.9,0.9-1.3,1.6-1.3,2.1c0,0.5,0.4,1.4,1.2,2.7
			c0.6,1,5.3-4,5.3-4C43.1,11.2,42.1,8.3,41.7,7z"/>
	</g>
</g>
</svg>
