<!-- Generator: Adobe Illustrator 18.1.1, SVG Export Plug-In  -->
<svg version="1.1"
	 xmlns="http://www.w3.org/2000/svg" xmlns:xlink="http://www.w3.org/1999/xlink" xmlns:a="http://ns.adobe.com/AdobeSVGViewerExtensions/3.0/"
	 x="0px" y="0px" width="66.8px" height="70.4px" viewBox="0 0 66.8 70.4" enable-background="new 0 0 66.8 70.4"
	 xml:space="preserve">
<defs>
</defs>
<g>
	<path fill="#F2E70A" d="M40.6,6.2c-1.4-0.5-3.2-0.8-5.4-0.9c-2.2-0.1-4.3,0.1-6.2,0.6c-4.2,1-8.3,3.6-12.4,7.9
		c-4.1,4.3-6.9,8.9-8.4,13.9c-1.7,5.8-2.7,10.1-3,13c-0.3,2.9,0.2,5.1,1.3,6.7c1.3,1.9,2,3.2,2,3.8c0,0.6,1,1.9,2.9,3.6
		c2,1.8,3.7,3.1,5.2,3.9c0.7,0.3,2.4,0.6,5,0.9c2.7,0.3,5.6,0.5,8.7,0.5c5.1,0.1,8.5,0,10.1-0.2c1.7-0.2,3.3-0.9,5-1.9
		c1.8-1.1,3.1-1.8,3.9-2c0.8-0.2,1.5-0.1,2,0.4c0.5,0.5,1.1,1.5,1.7,3c0.8,2,1.7,3.1,2.6,3.4c0.9,0.3,2.3-0.2,4-1.4
		c0.9-0.6,1.5-1.4,1.6-2.2c0.2-0.8,0.1-2.1-0.2-3.8c-0.3-1.7-1.1-4.4-2.2-8c-1.2-3.9-2.3-5.7-3.3-5.5c-1,0.3-2.1,0.5-3.5,0.6
		c-0.9,0.1-1.4,0.4-1.6,0.9c-0.2,0.5-0.3,1.5-0.2,2.9c0.1,1,0.3,1.9,0.6,2.9c0.3,1,0.6,1.6,0.9,2c1,1.2,0.7,2.2-1,2.8
		c-1.3,0.5-3.9,1-7.6,1.5c-6.1,0.7-11.6,0.4-16.5-0.9c-4.9-1.3-7.7-3.2-8.3-5.7c-0.2-0.8-0.5-1.4-0.9-1.9c-0.4-0.5-0.8-0.8-1.2-0.8
		c-2.2,0-1.9-1.3,0.9-4c0,0,0.1-0.1,0.1-0.1c1-0.9,1.9-1.5,2.7-1.8c0.8-0.3,1.8-0.3,2.9-0.1c1.4,0.3,3.6-0.1,6.7-1
		c3.1-0.9,7.6-2.7,13.6-5.2c1.8-0.7,3.2-1.4,4.2-1.9c1-0.5,2-1.1,2.8-1.8c0.8-0.7,1.4-1.4,1.7-1.9c0.3-0.6,0.5-1.4,0.6-2.5
		c0.1-1,0.1-2.1-0.1-3.2c-0.2-1.1-0.4-2.6-0.9-4.3c-0.6-2.8-1.8-5.2-3.8-7.3C46.1,9,43.7,7.4,40.6,6.2z"/>
	<path d="M30.8,0.3c3.4-0.5,6.4-0.4,9.1,0.3c2.7,0.7,5.7,2.2,8.9,4.5c6,4.2,9,10,9,17.3c0,2.5-0.2,4.4-0.5,5.9c-0.3,1.5-1,2.9-2,4.2
		c-1,1.3-2.4,2.4-4.1,3.4c-1.7,1-4,2.1-7,3.3c-3.6,1.5-6.5,2.6-8.8,3.2c-2.3,0.6-4.5,0.9-6.6,0.9c-2.1,0-3.6,0.1-4.4,0.3
		c-0.8,0.2-1.3,0.6-1.3,1.1c0,1.4,0.8,2.5,2.5,3.5c1.7,1,3.8,1.6,6.3,1.9c2.6,0.3,5.4,0.3,8.6-0.1c2.1-0.3,3.3-0.6,3.8-0.9
		c0.4-0.3,0.4-0.9-0.1-1.7c-1.4-2.6-1.2-4.8,0.6-6.5c1.8-1.7,5.6-3.4,11.4-5c2.5-0.7,4.3-0.7,5.4,0c1,0.7,1.5,2.2,1.5,4.6
		c0,1,0.2,2,0.5,3c0.3,1.1,0.7,1.9,1.1,2.6c0.7,1,1.3,3.1,1.7,6.2c0.4,3.1,0.5,6.1,0.4,8.9c-0.1,2.8-0.5,4.2-1.2,4.2
		c-0.4,0-1.1,0.3-2.2,0.8c-1.1,0.5-2.1,1.1-3.2,1.8c-2.7,1.8-4.8,2.6-6.2,2.5c-1.5-0.2-2.8-1.3-4-3.5c-0.9-1.7-1.6-2.6-2-2.9
		c-0.5-0.2-1.3,0-2.6,0.7c-1.9,0.9-4.5,1.8-7.9,2.6c-3.4,0.8-5.4,1-5.9,0.6c-0.6-0.3-3.5-0.7-8.6-1.2c-2.1-0.1-4.2-0.4-6.3-0.9
		c-2.1-0.5-3.6-0.9-4.4-1.4c-0.9-0.5-2-1.6-3.5-3.3c-1.5-1.7-2.9-3.5-4.1-5.4c-2.2-3.3-3.5-5.6-4-7C0.2,47.3,0,45,0,41.8
		c0-4.6,0.3-7.7,1-9.3c0.7-1.6,1.4-3.9,2.1-6.7c0.7-2.8,3.2-6.8,7.5-12.1C14.8,8.5,18.3,5,21.1,3.4c1.2-0.6,2.7-1.3,4.6-1.9
		C27.6,1,29.3,0.5,30.8,0.3z M40.5,6.3c-1.4-0.5-3.2-0.8-5.4-0.9c-2.2-0.1-4.3,0.1-6.2,0.6c-4.2,1-8.3,3.6-12.4,7.9
		c-4.1,4.3-6.9,8.9-8.4,13.9c-1.7,5.8-2.7,10.1-3,13c-0.3,2.9,0.2,5.1,1.3,6.7c1.3,1.9,2,3.2,2,3.8c0,0.6,1,1.9,2.9,3.6
		c2,1.8,3.7,3.1,5.2,3.9c0.7,0.3,2.4,0.6,5,0.9c2.7,0.3,5.6,0.5,8.7,0.5c5.1,0.1,8.5,0,10.1-0.2c1.7-0.2,3.3-0.9,5-1.9
		c1.8-1.1,3.1-1.8,3.9-2c0.8-0.2,1.5-0.1,2,0.4c0.5,0.5,1.1,1.5,1.7,3c0.8,2,1.7,3.1,2.6,3.4c0.9,0.3,2.3-0.2,4-1.4
		c0.9-0.6,1.5-1.4,1.6-2.2c0.2-0.8,0.1-2.1-0.2-3.8c-0.3-1.7-1.1-4.4-2.2-8c-1.2-3.9-2.3-5.7-3.3-5.5c-1,0.3-2.1,0.5-3.5,0.6
		c-0.9,0.1-1.4,0.4-1.6,0.9c-0.2,0.5-0.3,1.5-0.2,2.9c0.1,1,0.3,1.9,0.6,2.9c0.3,1,0.6,1.6,0.9,2c1,1.2,0.7,2.2-1,2.8
		c-1.3,0.5-3.9,1-7.6,1.5c-6.1,0.7-11.6,0.4-16.5-0.9c-4.9-1.3-7.7-3.2-8.3-5.7c-0.2-0.8-0.5-1.4-0.9-1.9c-0.4-0.5-0.8-0.8-1.2-0.8
		c-2.2,0-1.9-1.3,0.9-4c0,0,0.1-0.1,0.1-0.1c1-0.9,1.9-1.5,2.7-1.8c0.8-0.3,1.8-0.3,2.9-0.1c1.4,0.3,3.6-0.1,6.7-1
		c3.1-0.9,7.6-2.7,13.6-5.2c1.8-0.7,3.2-1.4,4.2-1.9c1-0.5,2-1.1,2.8-1.8c0.8-0.7,1.4-1.4,1.7-1.9c0.3-0.6,0.5-1.4,0.6-2.5
		c0.1-1,0.1-2.1-0.1-3.2c-0.2-1.1-0.4-2.6-0.9-4.3c-0.6-2.8-1.8-5.2-3.8-7.3C46,9.1,43.5,7.5,40.5,6.3z M26,15.6
		c3-0.5,5.4-0.6,7.1-0.5c1.7,0.1,3.5,0.5,5.3,1.3c1,0.4,1.9,0.8,2.6,1.3c0.8,0.5,1.1,0.8,1.2,1c0.1,1.2,0.2,2,0.3,2.5
		c0.1,0.5,0.1,1.1,0,1.9c-0.1,0.8-0.1,1.3-0.2,1.6c0,0.3-0.3,0.7-0.8,1.2c-0.5,0.6-0.8,0.9-1.2,1.1c-0.3,0.2-1,0.6-2,1.1
		c-1,0.6-1.9,1-2.7,1.3c-0.7,0.3-2,0.9-3.8,1.6c-2.8,1.2-4.9,2-6.2,2.3c-1.3,0.3-2.3,0.2-2.8-0.3c-0.5-0.5-0.8-1.5-0.8-3.1
		c0-1.4-0.2-3.2-0.6-5.3c-0.5-2.4-0.3-4.4,0.6-6.2C23,16.8,24.3,15.8,26,15.6z M36.1,20.7c-0.6-0.6-2-0.8-4.2-0.6
		c-2.2,0.2-3.6,0.6-4.3,1.3c-1,1.1-1.4,1.9-0.9,2.3c0.4,0.4,1.7,0.6,3.8,0.6c2.5,0,4.3-0.6,5.5-1.7C36.6,21.9,36.6,21.3,36.1,20.7z"
		/>
	<path fill="#FCFCFC" d="M36.1,20.1c-0.6-0.6-2-0.8-4.2-0.6c-2.2,0.2-3.6,0.6-4.3,1.3c-1,1.1-1.4,1.9-0.9,2.3
		c0.4,0.4,1.7,0.6,3.8,0.6c2.5,0,4.3-0.6,5.5-1.7C36.6,21.3,36.6,20.7,36.1,20.1z"/>
</g>
</svg>
