<!-- Generator: Adobe Illustrator 18.1.1, SVG Export Plug-In  -->
<svg version="1.1"
	 xmlns="http://www.w3.org/2000/svg" xmlns:xlink="http://www.w3.org/1999/xlink" xmlns:a="http://ns.adobe.com/AdobeSVGViewerExtensions/3.0/"
	 x="0px" y="0px" width="38.9px" height="120px" viewBox="0 0 38.9 120" enable-background="new 0 0 38.9 120" xml:space="preserve"
	>
<defs>
</defs>
<g>
	<path fill="#F2690C" d="M27.2,8.2c-3.7-0.6-7.2-1.3-10.3-2c-3.1-0.7-5.3-1.1-6.3-1.1c-1,0-1.7,0.9-2.3,2.7
		c-0.5,1.8-0.8,4.3-0.8,7.4v3.5l5-0.3c1.4,0,2.7,0,3.9,0.1c1.2,0.1,2.1,0.3,2.4,0.5c1.4,0.9,1.3,15.9-0.4,45
		c-0.5,9.6-0.9,17.9-1,24.8c-0.1,6.9,0.1,10.5,0.5,10.8c0.8,0.5,1,1.1,0.8,1.7s-0.9,0.9-1.8,0.9c-0.5,0-1.1,0.1-1.6,0.4
		c-0.5,0.3-0.9,0.6-1,1.1c-0.2,0.4-0.7,0.8-1.6,1.2c-0.9,0.4-1.9,0.6-3,0.7c-1.8,0.1-2.9,0.4-3.4,0.8c-0.4,0.4-0.7,1.4-0.9,2.9
		c-0.1,1.7,0,2.7,0.3,3c0.4,0.3,1.7,0.5,3.9,0.5c3,0,6.9,0.1,11.8,0.3l7.3,0.2l0.3-4.6l0.3-4.6l-3.8,0.5c-1.7,0.2-2.8,0.1-3.4-0.1
		c-0.6-0.3-1.1-1-1.5-2.2c-0.5-1.2-0.7-5.3-0.5-12.3c0.1-7,0.5-15.4,1.2-25.3l1.5-20.4c0.6-9,0.8-15.9,0.5-20.7l-0.5-7h5.9h5.8
		l-0.7-3.4c-0.5-2.3-0.8-3.5-1-3.7C32.9,9.2,31,8.8,27.2,8.2z"/>
	<path d="M3.4,4.8c0-2.8,0.2-4.3,0.5-4.6c0.3-0.3,1-0.3,2.3,0c3.5,0.7,11.8,1.9,25,3.4c1.8,0.2,3.2,0.7,4.1,1.4s1.6,1.8,2,3.4
		c0.5,1.6,0.8,4.1,1.1,7.4l0.6,7h-5.1h-5.1L28.5,31c-0.1,5.4-0.2,10-0.1,13.6c0.1,3.7-0.3,7.4-1,11.2c-0.8,3.8-1.3,7.7-1.5,11.6
		c-0.3,4.3-0.5,9.3-0.6,15c0,3.8-0.1,6.3-0.2,7.3c-0.1,1-0.1,2.9,0,5.5c0.1,1.9,0.3,3,0.7,3.4c0.4,0.4,1.4,0.5,3.1,0.5
		c1.7,0,2.8,0.2,3.1,0.5c0.5,0.5,0.7,2.6,0.7,6.1c0,0.5,0,1.8-0.1,3.9c-0.1,4.5-0.2,7.5-0.2,8.8c0,0.9-0.3,1.4-0.9,1.5
		c-0.7,0.1-2.5,0-5.6-0.4c-4.3-0.6-9.5-0.9-15.5-1c-6,0-9.3-0.3-9.9-0.9c-0.6-0.5-0.8-3.1-0.5-7.8c0.2-4.7,0.7-7.6,1.4-8.9
		c0.4-0.7,0.8-1.2,1.4-1.4s1.3-0.2,2.2,0c0.6,0.2,1.5,0.2,2.5,0.1c1-0.1,1.8-0.2,2.5-0.5l2.6-1l0.1-22c0.1-14.6,0.3-22.4,0.6-23.3
		c0.3-0.9,0.7-4.7,1.1-11.3c0.4-6.6,0.7-11.1,0.9-13.5c0.2-2.2-0.1-3.6-0.8-4.2c-0.7-0.6-2-0.5-3.9,0.1c-1.9,0.7-3.8,0.6-5.7-0.1
		c-0.7-0.3-1.2-0.5-1.4-0.6c-0.3-0.2-0.5-0.4-0.8-0.6c-0.2-0.2-0.4-0.7-0.4-1.3c0-0.6,0-1.2,0-1.8c0-0.6,0.1-1.7,0.3-3.1
		C3.1,12.1,3.4,8.3,3.4,4.8z M27.2,8.2c-3.7-0.6-7.2-1.3-10.3-2c-3.1-0.7-5.3-1.1-6.3-1.1c-1,0-1.7,0.9-2.3,2.7
		c-0.5,1.8-0.8,4.3-0.8,7.4v3.5l5-0.3c1.4,0,2.7,0,3.9,0.1c1.2,0.1,2.1,0.3,2.4,0.5c1.4,0.9,1.3,15.9-0.4,45
		c-0.5,9.6-0.9,17.9-1,24.8c-0.1,6.9,0.1,10.5,0.5,10.8c0.8,0.5,1,1.1,0.8,1.7s-0.9,0.9-1.8,0.9c-0.5,0-1.1,0.1-1.6,0.4
		c-0.5,0.3-0.9,0.6-1,1.1c-0.2,0.4-0.7,0.8-1.6,1.2c-0.9,0.4-1.9,0.6-3,0.7c-1.8,0.1-2.9,0.4-3.4,0.8c-0.4,0.4-0.7,1.4-0.9,2.9
		c-0.1,1.7,0,2.7,0.3,3c0.4,0.3,1.7,0.5,3.9,0.5c3,0,6.9,0.1,11.8,0.3l7.3,0.2l0.3-4.6l0.3-4.6l-3.8,0.5c-1.7,0.2-2.8,0.1-3.4-0.1
		c-0.6-0.3-1.1-1-1.5-2.2c-0.5-1.2-0.7-5.3-0.5-12.3c0.1-7,0.5-15.4,1.2-25.3l1.5-20.4c0.6-9,0.8-15.9,0.5-20.7l-0.5-7h5.9h5.8
		l-0.7-3.4c-0.5-2.3-0.8-3.5-1-3.7C32.9,9.2,31,8.8,27.2,8.2z"/>
</g>
</svg>
