<!-- Generator: Adobe Illustrator 18.1.1, SVG Export Plug-In  -->
<svg version="1.1"
	 xmlns="http://www.w3.org/2000/svg" xmlns:xlink="http://www.w3.org/1999/xlink" xmlns:a="http://ns.adobe.com/AdobeSVGViewerExtensions/3.0/"
	 x="0px" y="0px" width="51.2px" height="54.5px" viewBox="0 0 51.2 54.5" enable-background="new 0 0 51.2 54.5"
	 xml:space="preserve">
<defs>
</defs>
<g>
	<g>
		<path fill="#15DEED" d="M22.4,6c0-1.6-2.3-1.5-6.8,0.5c-0.5,0.2-0.9,0.5-1.4,0.7c-0.7,0.3-1.5,1.1-2.5,2.4c-1,1.3-1.9,2.6-2.7,4.1
			c-1.2,2.4-2,4.4-2.3,6.2c-0.3,1.8-0.5,5.1-0.5,9.9L6.3,40.6l4.6,4c1.3,1.1,2.5,2,3.5,2.7s1.7,1,2,0.8c0.5-0.3,0.8-0.2,0.8,0.4
			c0,1,1.5,1.6,4.4,1.6c3,0,5.8-0.4,8.4-1.4c2.6-1,5-2.4,7.2-4.1c2.2-1.7,4.1-3.7,5.6-5.8c1.5-2.1,2.7-4.4,3.6-6.7
			c0.9-2.3,1.3-4.6,1.2-7c-0.1-2.3-0.6-4.5-1.6-6.4c-4.7-9.1-11-13.2-19-12.2C24,6.9,22.4,6.7,22.4,6z"/>
		<path fill="#FFFFFF" d="M28.3,17.9c-2.5-0.7-4.6-0.7-6.3,0.1c-1.7,0.7-3.1,2.3-4.3,4.6c-1.2,2.3-1.6,4.1-1.4,5.5
			c0.2,1.4,1.3,2.8,3.1,4.2c1.4,1,2.4,1.7,3.2,1.9c0.8,0.2,1.7,0.1,2.7-0.3c1.8-0.7,3.1-0.8,4.1-0.4c0.7,0.3,1,0.3,1-0.1
			c0-0.1,0-0.2-0.1-0.3c-0.1-0.2-0.1-0.8,0.2-1.8c0.3-1,0.7-2,1.2-3.1c1-1.9,1.4-3.2,1.5-3.9c0-0.7-0.4-1.7-1.1-3.1
			c-0.5-0.8-1.1-1.5-1.8-2.2C29.6,18.5,28.9,18.1,28.3,17.9z"/>
	</g>
	<path d="M19.4,1.7C23,0.5,26.1-0.1,28.6,0c2.6,0.1,5.5,0.9,8.7,2.4c4.1,1.9,7.5,4.7,10,8.4c2.5,3.7,3.8,7.6,3.9,11.8
		c0,0.9-0.1,2.4-0.6,4.6c-0.4,2.2-0.9,4.3-1.5,6.3c-1,3.1-1.9,5.4-2.8,7c-0.9,1.6-2.4,3.4-4.5,5.4c-3.1,3-5.8,5.2-8.1,6.4
		c-2.3,1.2-5,1.9-8.2,2.2c-3.1,0.3-6.4-0.2-9.9-1.3c-3.5-1.1-6.5-2.8-9.2-4.9C3.8,46.2,2,43.9,1,41.4c-0.3-0.7-0.5-2.2-0.7-4.6
		C0.1,34.5,0,32,0,29.5c0-4.1,0.2-7,0.5-8.7c0.3-1.7,1.1-3.8,2.5-6.3c1.6-3.2,3.7-5.7,6.2-7.7C11.6,4.9,15,3.2,19.4,1.7z M22,6
		c0-1.6-2.3-1.5-6.8,0.5c-0.5,0.2-0.9,0.5-1.4,0.7c-0.7,0.3-1.5,1.1-2.5,2.4c-1,1.3-1.9,2.6-2.7,4.1c-1.2,2.4-2,4.4-2.3,6.2
		c-0.3,1.8-0.5,5.1-0.5,9.9L5.9,40.6l4.6,4c1.3,1.1,2.5,2,3.5,2.7s1.7,1,2,0.8c0.5-0.3,0.8-0.2,0.8,0.4c0,1,1.5,1.6,4.4,1.6
		c3,0,5.8-0.4,8.4-1.4c2.6-1,5-2.4,7.2-4.1c2.2-1.7,4.1-3.7,5.6-5.8c1.5-2.1,2.7-4.4,3.6-6.7c0.9-2.3,1.3-4.6,1.2-7
		c-0.1-2.3-0.6-4.5-1.6-6.4c-4.7-9.1-11-13.2-19-12.2C23.6,6.9,22,6.7,22,6z M21.4,12.4c0.4-0.7,1.3-0.9,2.8-0.7
		c1.5,0.2,3,0.6,4.6,1.3c1.6,0.6,3.2,1.5,4.6,2.5c1.5,1,2.4,2,2.7,3c1,2.4,1.3,4.5,0.9,6.4c-0.3,1.9-1.5,4.3-3.4,7.3
		c-1,1.7-2.1,3.1-3.2,4.3c-1.1,1.2-1.9,1.8-2.4,1.8c-0.5,0-0.9,0.2-1.4,0.4c-0.5,0.2-0.8,0.5-1,0.8c-0.4,0.6-1.7,0.8-4.1,0.5
		c-2.4-0.3-4.3-0.9-5.9-1.7c-1.2-0.6-2.4-2-3.5-4s-1.6-3.9-1.6-5.5c0-2,0.5-4.2,1.4-6.6c0.9-2.5,2.1-4.5,3.4-6.3
		c1.3-1.7,2.5-2.6,3.5-2.6c0.5,0,1.1-0.1,1.6-0.2C21,12.8,21.3,12.6,21.4,12.4z M27.9,17.9c-2.5-0.7-4.6-0.7-6.3,0.1
		c-1.7,0.7-3.1,2.3-4.3,4.6c-1.2,2.3-1.6,4.1-1.4,5.5c0.2,1.4,1.3,2.8,3.1,4.2c1.4,1,2.4,1.7,3.2,1.9c0.8,0.2,1.7,0.1,2.7-0.3
		c1.8-0.7,3.1-0.8,4.1-0.4c0.7,0.3,1,0.3,1-0.1c0-0.1,0-0.2-0.1-0.3c-0.1-0.2-0.1-0.8,0.2-1.8c0.3-1,0.7-2,1.2-3.1
		c1-1.9,1.4-3.2,1.5-3.9c0-0.7-0.4-1.7-1.1-3.1c-0.5-0.8-1.1-1.5-1.8-2.2C29.2,18.5,28.5,18.1,27.9,17.9z"/>
</g>
</svg>
