<!-- Generator: Adobe Illustrator 18.1.1, SVG Export Plug-In  -->
<svg version="1.1"
	 xmlns="http://www.w3.org/2000/svg" xmlns:xlink="http://www.w3.org/1999/xlink" xmlns:a="http://ns.adobe.com/AdobeSVGViewerExtensions/3.0/"
	 x="0px" y="0px" width="68.3px" height="101.3px" viewBox="0 0 68.3 101.3" enable-background="new 0 0 68.3 101.3"
	 xml:space="preserve">
<defs>
</defs>
<g>
	<path fill="#2F48F7" d="M47.1,9.6c-2.6-1.3-6.1-2.2-10.4-2.7c-4.3-0.5-7.6-0.4-9.8,0.3c-1.5,0.5-4.1,2.4-7.7,5.7
		c-3.7,3.3-5.5,5.3-5.5,6.2c0,0.6-0.6,1.9-1.9,3.7c-1.2,1.8-2.3,4.6-3.2,8.6c-0.9,4-1.6,8.2-2,12.7c-0.4,4.5-0.5,9-0.3,13.6
		c0.2,4.6,0.7,8.2,1.6,11c1,3.5,1.6,6.3,1.6,8.3c0,1.1,0.5,2.4,1.6,3.9c1.1,1.4,3.1,3.6,6,6.4c1.4,1.3,2.4,2.3,3.1,2.9
		c0.7,0.7,1.5,1.3,2.2,2c0.8,0.6,1.3,1.1,1.7,1.3c0.4,0.2,0.8,0.4,1.4,0.6c0.5,0.2,1,0.2,1.4,0.2c0.4,0,0.9-0.1,1.5-0.2
		c2.5-0.4,5.4-0.8,8.9-1.2c4.8-0.5,8.9-2.2,12.2-5c3.3-2.8,6.3-7.1,9.1-13l3.8-8l0.1-15.4c0-6.4-0.1-11-0.4-13.8
		c-0.3-2.8-0.9-5.8-1.9-8.9C56.9,18.7,52.6,12.3,47.1,9.6z"/>
	<path fill="#FFFFFF" d="M42.6,23c-1.3-1.5-2.8-2.7-4.6-3.5c-1.8-0.9-3.4-1.1-4.8-0.8c-2,0.4-3.8,1.8-5.6,4.1
		c-1.8,2.3-3,4.9-3.5,7.8c-0.8,3.7-1.5,6-2.3,7c-0.3,0.4-0.6,1.7-0.8,3.9c-0.2,2.3-0.3,4.7-0.3,7.5c0,4.5,0.2,7.6,0.5,9.3
		c0.3,1.7,1.2,3.9,2.6,6.6c2,3.8,4.1,6.6,6.3,8.2c2.2,1.7,4.4,2.1,6.5,1.3c0.8-0.3,1.8-0.8,3-1.7c1.2-0.8,2.2-1.7,3.1-2.7
		c2.9-3,4.8-7.6,5.9-13.7s1-12.3-0.1-18.6C47.5,31.6,45.5,26.6,42.6,23z"/>
	<path d="M28.4,1.1c3.8-0.6,5.9-1,6.2-1.1C35-0.1,36.8,0.4,40,1.4c3.3,1,5.1,1.3,5.4,1c0.8-0.7,2.5,0,5.1,2c2.7,2.1,5.2,4.7,7.7,7.7
		c2.5,3,3.9,5.4,4.1,7.2c0.1,1,0.6,1.9,1.4,2.9c1,1.4,2.1,4.8,3.1,10.2c1,5.4,1.5,10.4,1.5,14.8c0,12.2-1.3,22.1-3.9,29.6
		c-2.6,7.5-6.9,13.5-12.8,18c-2.9,2.2-5.9,3.7-9.1,4.6c-3.2,0.9-7.7,1.4-13.5,1.6l-8.1,0.3l-4.4-4.2c-4.6-4.5-8-8.5-10-12.1
		c-2-3.6-3.7-8.5-4.9-14.7c-1-5-1.6-11.2-1.6-18.7c0-7.5,0.5-12.7,1.6-15.5c1-2.8,1.5-5.2,1.5-7c0-0.8,0.1-1.6,0.3-2.2
		c0.2-0.7,0.4-1.1,0.8-1.3c0.6-0.4,1.3-2,2.1-4.8c0.3-1.2,0.9-2.5,1.8-4c0.9-1.5,1.9-2.7,2.9-3.7c1-1,1.8-2,2.6-3.1
		c0.8-1.1,1.2-1.9,1.3-2.4c0.1-0.5,0.5-1.1,1.1-1.6c0.7-0.5,1.4-0.9,2.3-1.1c0.8-0.2,1.6-0.5,2.4-0.9c0.8-0.4,1.2-0.7,1.4-1
		c0.2-0.3,0.9-0.7,2.1-1.1C25.4,1.7,26.8,1.3,28.4,1.1z M47.1,9.6c-2.6-1.3-6.1-2.2-10.4-2.7c-4.3-0.5-7.6-0.4-9.8,0.3
		c-1.5,0.5-4.1,2.4-7.7,5.7c-3.7,3.3-5.5,5.3-5.5,6.2c0,0.6-0.6,1.9-1.9,3.7c-1.2,1.8-2.3,4.6-3.2,8.6c-0.9,4-1.6,8.2-2,12.7
		c-0.4,4.5-0.5,9-0.3,13.6c0.2,4.6,0.7,8.2,1.6,11c1,3.5,1.6,6.3,1.6,8.3c0,1.1,0.5,2.4,1.6,3.9c1.1,1.4,3.1,3.6,6,6.4
		c1.4,1.3,2.4,2.3,3.1,2.9c0.7,0.7,1.5,1.3,2.2,2c0.8,0.6,1.3,1.1,1.7,1.3c0.4,0.2,0.8,0.4,1.4,0.6c0.5,0.2,1,0.2,1.4,0.2
		c0.4,0,0.9-0.1,1.5-0.2c2.5-0.4,5.4-0.8,8.9-1.2c4.8-0.5,8.9-2.2,12.2-5c3.3-2.8,6.3-7.1,9.1-13l3.8-8l0.1-15.4
		c0-6.4-0.1-11-0.4-13.8c-0.3-2.8-0.9-5.8-1.9-8.9C56.9,18.7,52.6,12.3,47.1,9.6z M31.6,12.5c1.6-0.6,2.9-0.8,3.9-0.5
		c1,0.3,1.9,0.5,2.9,0.5c1.5,0,3.7,1.6,6.7,4.8c2.9,3.2,5.1,6.4,6.6,9.7c1.2,2.7,2.1,5.2,2.6,7.5c0.5,2.3,0.9,5.9,1.1,10.6
		c0.3,5.5,0.4,9.2,0.1,11c-0.2,1.8-1,4.5-2.5,7.9c-2.4,6-5.3,10.6-8.7,13.9c-3.4,3.3-7,5-10.8,5c-1.4,0-2.7-0.4-3.8-1.1
		c-1.1-0.7-2.7-2.1-4.8-4.3c-3.4-3.5-6-7.2-7.6-11c-1.7-3.8-2.7-8.2-2.9-13.1c-0.3-4.1,0-8.4,0.8-12.9c0.8-4.5,1.9-7.7,3.2-9.6
		c1-1.5,1.6-2.8,1.6-3.9c0-2.5,1.2-5.3,3.7-8.4C26.1,15.8,28.7,13.7,31.6,12.5z M42.6,23c-1.3-1.5-2.8-2.7-4.6-3.5
		c-1.8-0.9-3.4-1.1-4.8-0.8c-2,0.4-3.8,1.8-5.6,4.1c-1.8,2.3-3,4.9-3.5,7.8c-0.8,3.7-1.5,6-2.3,7c-0.3,0.4-0.6,1.7-0.8,3.9
		c-0.2,2.3-0.3,4.7-0.3,7.5c0,4.5,0.2,7.6,0.5,9.3c0.3,1.7,1.2,3.9,2.6,6.6c2,3.8,4.1,6.6,6.3,8.2c2.2,1.7,4.4,2.1,6.5,1.3
		c0.8-0.3,1.8-0.8,3-1.7c1.2-0.8,2.2-1.7,3.1-2.7c2.9-3,4.8-7.6,5.9-13.7s1-12.3-0.1-18.6C47.5,31.6,45.5,26.6,42.6,23z"/>
</g>
</svg>
